<?xml version="1.0" encoding="UTF-8" standalone="no"?>
<!-- Created with Inkscape (http://www.inkscape.org/) -->

<svg
   width="100mm"
   height="100mm"
   viewBox="0 0 100 100"
   version="1.1"
   id="svg1"
   xml:space="preserve"
   inkscape:version="1.4 (86a8ad7, 2024-10-11)"
   sodipodi:docname="002 WARNING TRIANGLE.svg"
   xmlns:inkscape="http://www.inkscape.org/namespaces/inkscape"
   xmlns:sodipodi="http://sodipodi.sourceforge.net/DTD/sodipodi-0.dtd"
   xmlns="http://www.w3.org/2000/svg"
   xmlns:svg="http://www.w3.org/2000/svg"><sodipodi:namedview
     id="namedview1"
     pagecolor="#ffffff"
     bordercolor="#000000"
     borderopacity="0.25"
     inkscape:showpageshadow="2"
     inkscape:pageopacity="0.0"
     inkscape:pagecheckerboard="0"
     inkscape:deskcolor="#d1d1d1"
     inkscape:document-units="mm"
     inkscape:zoom="1.1678868"
     inkscape:cx="190.08692"
     inkscape:cy="186.2338"
     inkscape:window-width="1920"
     inkscape:window-height="1009"
     inkscape:window-x="1912"
     inkscape:window-y="-8"
     inkscape:window-maximized="1"
     inkscape:current-layer="layer1" /><defs
     id="defs1" /><g
     inkscape:label="Layer 1"
     inkscape:groupmode="layer"
     id="layer1"
     transform="translate(-73.121366,-116.62135)"><path
       d="m 126.76092,190.23149 c 0,2.00751 -1.63215,3.63966 -3.63875,3.63966 a 3.642377,3.642377 0 0 1 -3.63716,-3.63966 c 0,-2.00591 1.63125,-3.63715 3.63716,-3.63715 2.00592,0 3.63875,1.63124 3.63875,3.63715 m 1.2124,-40.11532 c 1.04511,1.1759 1.55848,2.58887 1.4073,3.86042 l -3.35656,24.7217 c -0.28694,1.88964 -1.37036,3.01907 -2.90212,3.01907 -1.52992,0 -2.61425,-1.12921 -2.89871,-3.00435 l -3.3586,-24.72736 c -0.15776,-1.2788 0.3443,-2.68452 1.37875,-3.85543 1.26747,-1.43587 3.09093,-2.29195 4.87834,-2.29195 1.77042,0 3.5839,0.852 4.85136,2.27812"
       fill="#ffffff"
       fill-rule="evenodd"
       id="path2-9-8"
       style="fill:#000000;fill-opacity:1;stroke-width:0.226657" /></g></svg>
