<?xml version="1.0" encoding="UTF-8" standalone="no"?>
<!-- Created with Inkscape (http://www.inkscape.org/) -->

<svg
   width="100mm"
   height="100mm"
   viewBox="0 0 100 100"
   version="1.1"
   id="svg1"
   xml:space="preserve"
   inkscape:version="1.4 (86a8ad7, 2024-10-11)"
   sodipodi:docname="003 INFORMATION SYMBOL.svg"
   xmlns:inkscape="http://www.inkscape.org/namespaces/inkscape"
   xmlns:sodipodi="http://sodipodi.sourceforge.net/DTD/sodipodi-0.dtd"
   xmlns="http://www.w3.org/2000/svg"
   xmlns:svg="http://www.w3.org/2000/svg"><sodipodi:namedview
     id="namedview1"
     pagecolor="#ffffff"
     bordercolor="#000000"
     borderopacity="0.25"
     inkscape:showpageshadow="2"
     inkscape:pageopacity="0.0"
     inkscape:pagecheckerboard="0"
     inkscape:deskcolor="#d1d1d1"
     inkscape:document-units="mm"
     inkscape:zoom="1.1678868"
     inkscape:cx="190.08692"
     inkscape:cy="185.80568"
     inkscape:window-width="1552"
     inkscape:window-height="1032"
     inkscape:window-x="2212"
     inkscape:window-y="0"
     inkscape:window-maximized="0"
     inkscape:current-layer="layer1" /><defs
     id="defs1" /><g
     inkscape:label="Layer 1"
     inkscape:groupmode="layer"
     id="layer1"
     transform="translate(-73.121366,-116.62135)"><path
       d="m 129.18099,198.24889 c 0,3.34228 -2.71735,6.05963 -6.05811,6.05963 a 6.0641512,6.0641512 0 0 1 -6.05547,-6.05963 c 0,-3.33961 2.71585,-6.05545 6.05547,-6.05545 3.33962,0 6.05811,2.71584 6.05811,6.05545 m 2.0185,-66.78754 c 1.74,1.95774 2.59471,4.31018 2.34301,6.42717 l -5.5883,41.15888 c -0.47773,3.14603 -2.28151,5.02641 -4.8317,5.02641 -2.54716,0 -4.35245,-1.88001 -4.82603,-5.0019 l -5.59171,-41.1683 c -0.26264,-2.12905 0.57322,-4.46943 2.29548,-6.41886 2.11018,-2.39057 5.14604,-3.81585 8.12189,-3.81585 2.94754,0 5.96679,1.41849 8.07698,3.79283"
       fill="#ffffff"
       fill-rule="evenodd"
       id="path2-9"
       style="stroke-width:0.414985;font-variation-settings:normal;opacity:1;vector-effect:none;fill:#000000;fill-opacity:1;stroke-linecap:butt;stroke-linejoin:miter;stroke-miterlimit:4;stroke-dasharray:none;stroke-dashoffset:0;stroke-opacity:1;-inkscape-stroke:none;stop-color:#000000;stop-opacity:1" /></g></svg>
