<?xml version="1.0" encoding="UTF-8" standalone="no"?>
<!-- Created with Inkscape (http://www.inkscape.org/) -->

<svg
   width="100mm"
   height="100mm"
   viewBox="0 0 100 100"
   version="1.1"
   id="svg1"
   xml:space="preserve"
   inkscape:version="1.4 (86a8ad7, 2024-10-11)"
   sodipodi:docname="008 EMERGENCY EXIT.svg"
   xmlns:inkscape="http://www.inkscape.org/namespaces/inkscape"
   xmlns:sodipodi="http://sodipodi.sourceforge.net/DTD/sodipodi-0.dtd"
   xmlns="http://www.w3.org/2000/svg"
   xmlns:svg="http://www.w3.org/2000/svg"><sodipodi:namedview
     id="namedview1"
     pagecolor="#ffffff"
     bordercolor="#000000"
     borderopacity="0.25"
     inkscape:showpageshadow="2"
     inkscape:pageopacity="0.0"
     inkscape:pagecheckerboard="0"
     inkscape:deskcolor="#d1d1d1"
     inkscape:document-units="mm"
     inkscape:zoom="0.82582068"
     inkscape:cx="157.41916"
     inkscape:cy="231.89054"
     inkscape:window-width="1920"
     inkscape:window-height="1009"
     inkscape:window-x="1912"
     inkscape:window-y="-8"
     inkscape:window-maximized="1"
     inkscape:current-layer="layer1" /><defs
     id="defs1" /><g
     inkscape:label="Layer 1"
     inkscape:groupmode="layer"
     id="layer1"
     transform="translate(-73.121366,-116.62135)"><path
       id="rect1"
       style="fill:#000000;fill-opacity:1;stroke:none;stroke-width:0.288276;stroke-opacity:1"
       d="m 73.121319,116.62135 v 100 H 173.12141 v -100 z m 19.923848,6.96851 h 60.067653 v 37.33734 h -4.23489 c -1.33171,-0.0779 -2.84081,-0.10929 -4.56148,-0.0804 -0.92925,0.008 -1.14904,-0.1921 -1.53944,-0.66208 -2.80957,-3.326 -5.95816,-7.13067 -8.83822,-10.69873 -1.07135,-1.1465 -1.32681,-1.85203 -3.56877,-1.80206 -6.90196,0 -20.68556,0.0223 -20.68556,0.0223 -2.94969,0.0922 -3.46811,0.67621 -4.60334,2.37128 l -6.454898,10.84088 c -1.965491,4.21629 3.900548,7.11532 6.071458,3.14025 l 5.26376,-9.25884 c 0.0995,-0.171 0.24771,-0.21316 0.43874,-0.20651 l 7.27294,0.0851 c -1.98765,4.25875 -3.97421,8.51159 -5.95984,12.78564 -0.60903,1.59542 -0.79381,3.05629 -0.95809,5.16386 -0.26237,4.24518 -0.49678,8.51834 -0.74362,12.76437 -0.0783,0.56271 -0.26262,0.94021 -0.93638,0.94021 -5.3142,-0.0214 -15.478635,-0.13542 -15.478635,-0.13542 -5.278238,0.20595 -8.519893,4.54413 -8.519893,7.82881 l 28.459758,-0.0659 c 2.51843,-0.0783 4.44072,-0.80436 4.66742,-3.66067 l 0.86558,-16.50288 c 4.5898,9.27404 9.19411,18.54041 13.77642,27.81387 1.14242,2.01569 2.49674,4.26704 5.7459,4.19512 l 6.21461,0.0207 -16.94006,-34.34497 c -0.34062,-0.6485 0.11375,-1.48126 0.30593,-1.85187 1.70197,-3.62498 3.31224,-6.81727 5.0214,-10.57108 l 6.16396,7.31616 c 1.01583,1.01999 1.3234,1.27211 2.74402,1.29927 0.0339,0.002 0.0678,0.003 0.10232,0.004 0.0521,0.001 0.0789,0.008 0.13384,0.008 0.0823,0 0.1606,-0.003 0.24288,-0.004 h 10.53218 v 41.40013 l -6.00687,5.93595 h -11.31352 l 7.34063,-7.06035 h -9.1245 l -7.33961,7.06035 H 87.038299 l 6.006868,-5.93595 v -12.63205 l -7.962304,0.0182 -2.438094,0.005 v -2.44754 c 0,-4.64063 4.162426,-9.75078 10.400398,-10.22914 z m 38.168723,8.26727 c -3.95084,0 -6.98717,3.04915 -6.98717,7.03752 0,3.99588 3.03633,7.04427 6.98717,7.04427 3.95112,0 6.97994,-3.04839 6.97994,-7.04427 0,-3.98808 -3.02852,-7.03752 -6.97994,-7.03752 z" /></g></svg>
