<?xml version="1.0" encoding="UTF-8" standalone="no"?>
<!-- Created with Inkscape (http://www.inkscape.org/) -->

<svg
   width="100mm"
   height="100mm"
   viewBox="0 0 100 100"
   version="1.1"
   id="svg1"
   xml:space="preserve"
   inkscape:version="1.4 (86a8ad7, 2024-10-11)"
   sodipodi:docname="010 DISABLED.svg"
   xmlns:inkscape="http://www.inkscape.org/namespaces/inkscape"
   xmlns:sodipodi="http://sodipodi.sourceforge.net/DTD/sodipodi-0.dtd"
   xmlns="http://www.w3.org/2000/svg"
   xmlns:svg="http://www.w3.org/2000/svg"><sodipodi:namedview
     id="namedview1"
     pagecolor="#ffffff"
     bordercolor="#000000"
     borderopacity="0.25"
     inkscape:showpageshadow="2"
     inkscape:pageopacity="0.0"
     inkscape:pagecheckerboard="0"
     inkscape:deskcolor="#d1d1d1"
     inkscape:document-units="mm"
     inkscape:zoom="1.1678868"
     inkscape:cx="212.34935"
     inkscape:cy="170.82135"
     inkscape:window-width="1920"
     inkscape:window-height="1129"
     inkscape:window-x="-8"
     inkscape:window-y="-4"
     inkscape:window-maximized="1"
     inkscape:current-layer="layer1" /><defs
     id="defs1" /><g
     inkscape:label="Layer 1"
     inkscape:groupmode="layer"
     id="layer1"
     transform="translate(-73.121366,-116.62135)"><path
       style="fill:#000000;fill-opacity:1;stroke-width:0.414985;font-variation-settings:normal;opacity:1;vector-effect:none;stroke-linecap:butt;stroke-linejoin:miter;stroke-miterlimit:4;stroke-dasharray:none;stroke-dashoffset:0;stroke-opacity:1;-inkscape-stroke:none;stop-color:#000000;stop-opacity:1"
       d="m 112.21748,208.38239 c -0.64319,-0.074 -1.78431,-0.25731 -2.53582,-0.40736 -0.75152,-0.15007 -2.13941,-0.53328 -3.0842,-0.85159 -0.9448,-0.3183 -2.49083,-0.97932 -3.43563,-1.46894 -0.9448,-0.48961 -2.38041,-1.36422 -3.190233,-1.94357 -0.80983,-0.57934 -2.12712,-1.69946 -2.92732,-2.48914 -0.800195,-0.78969 -1.876578,-1.98949 -2.391949,-2.66624 -0.515372,-0.67675 -1.253021,-1.74425 -1.639222,-2.37222 -0.386191,-0.62797 -0.947147,-1.66914 -1.246572,-2.3137 -0.299424,-0.64456 -0.724394,-1.67525 -0.944377,-2.29042 -0.219983,-0.61517 -0.544543,-1.70746 -0.721245,-2.4273 -0.176703,-0.71985 -0.37206,-1.60187 -0.434135,-1.96006 -0.06211,-0.35817 -0.171585,-1.44496 -0.243376,-2.41507 -0.07174,-0.97012 -0.06449,-2.65091 0.01634,-3.73511 0.08083,-1.08418 0.289611,-2.61092 0.464096,-3.39275 0.174484,-0.78183 0.50981,-2.01047 0.745168,-2.73032 0.23537,-0.71985 0.826211,-2.1219 1.313007,-3.11567 0.486796,-0.99376 1.331174,-2.44621 1.876409,-3.22765 0.545224,-0.78144 1.521304,-1.99239 2.16906,-2.69099 0.647744,-0.69861 1.618266,-1.66328 2.156706,-2.14372 0.53844,-0.48045 1.63999,-1.31567 2.447893,-1.85607 0.80789,-0.54039 2.02498,-1.26005 2.70463,-1.59924 0.67964,-0.3392 1.71426,-0.80328 2.29914,-1.03131 0.58487,-0.22802 1.22905,-0.46434 1.43151,-0.52516 l 0.3681,-0.11057 v 3.83587 3.83589 l -1.37702,0.77285 c -0.75736,0.42507 -1.97454,1.25094 -2.70484,1.83524 -0.7303,0.58432 -1.77307,1.58901 -2.31725,2.23265 -0.54419,0.64363 -1.353083,1.75858 -1.797533,2.47764 -0.44446,0.71906 -1.0346,1.89473 -1.31143,2.61257 -0.27684,0.71787 -0.64943,1.85963 -0.82798,2.53726 -0.20398,0.77408 -0.358688,2.03638 -0.416196,3.39597 -0.05702,1.34782 -0.0171,2.64356 0.105928,3.43563 0.108588,0.69943 0.377488,1.87411 0.597548,2.61039 0.22006,0.73627 0.62473,1.83929 0.89925,2.45116 0.27452,0.61185 0.91551,1.73824 1.42441,2.50306 0.508903,0.76484 1.517873,1.98321 2.242163,2.7075 0.72429,0.72429 1.94995,1.73811 2.72369,2.25294 0.77375,0.51483 1.96633,1.19457 2.65018,1.51053 0.68385,0.31596 1.92682,0.75535 2.76215,0.97642 0.83533,0.22107 2.25499,0.46972 3.1548,0.55256 0.9953,0.0916 2.27673,0.0917 3.27203,3e-4 0.89981,-0.0827 2.22498,-0.30803 2.94483,-0.5008 0.71984,-0.19276 1.81167,-0.55718 2.42627,-0.80982 0.61461,-0.25264 1.57168,-0.73217 2.12682,-1.06565 0.55514,-0.33347 1.41426,-0.91466 1.90916,-1.29155 0.49489,-0.37686 1.45243,-1.26528 2.12786,-1.97424 0.67542,-0.70898 1.58735,-1.83572 2.02651,-2.50387 0.43915,-0.66814 1.04099,-1.74703 1.33742,-2.3975 0.29643,-0.65048 0.6293,-1.4842 0.73971,-1.8527 l 0.20074,-0.67002 h 1.40778 1.40779 l 1.41587,2.83723 1.41587,2.83722 -0.63767,1.17517 c -0.35071,0.64635 -0.94576,1.63343 -1.32233,2.19351 -0.37658,0.56009 -0.97996,1.38646 -1.34086,1.83635 -0.36091,0.4499 -1.06655,1.24804 -1.56811,1.77361 -0.50156,0.52559 -1.42727,1.3803 -2.05714,1.89937 -0.62986,0.51906 -1.80676,1.37496 -2.61533,1.90199 -0.80856,0.52702 -2.25524,1.30857 -3.21484,1.73676 -0.9596,0.4282 -2.37697,0.96175 -3.14969,1.18568 -0.77274,0.22393 -2.05002,0.52386 -2.83842,0.66652 -0.78838,0.14265 -2.42731,0.28764 -3.64205,0.3222 -1.21474,0.0345 -2.73485,0.002 -3.37804,-0.0717 z m 38.83609,-3.6162 c -0.33882,-0.0824 -0.8943,-0.29185 -1.23436,-0.46534 -0.34009,-0.17349 -0.90949,-0.63702 -1.26538,-1.03006 -0.45419,-0.50163 -2.10985,-3.59913 -5.55508,-10.3928 l -4.90804,-9.67819 -9.89789,-0.0595 c -8.6511,-0.052 -9.99535,-0.0934 -10.67173,-0.32807 -0.4256,-0.14771 -1.10945,-0.46524 -1.51965,-0.70563 -0.41021,-0.24039 -1.0694,-0.76066 -1.46488,-1.15614 -0.39549,-0.39549 -0.94792,-1.11906 -1.22763,-1.60793 -0.2797,-0.48889 -0.6184,-1.41568 -0.75264,-2.05954 -0.20709,-0.99317 -0.2362,-3.10931 -0.19196,-13.95584 0.0432,-10.5762 0.0926,-12.89821 0.28617,-13.43955 0.12871,-0.35992 0.47161,-1.0644 0.762,-1.5655 0.29039,-0.50111 0.86875,-1.2252 1.28522,-1.60911 0.41648,-0.38388 1.22774,-0.91816 1.80278,-1.18726 0.57505,-0.26909 1.57527,-0.56788 2.2227,-0.66398 0.87059,-0.12921 1.45263,-0.12395 2.23498,0.0202 0.5818,0.10722 1.47214,0.40407 1.97852,0.65973 0.50638,0.25565 1.29971,0.86562 1.76297,1.35549 0.46325,0.48987 1.03434,1.26968 1.26908,1.73292 0.23474,0.46323 0.53561,1.30378 0.66862,1.86788 0.18909,0.80206 0.24233,2.28285 0.24423,6.79259 l 0.002,5.76695 h 6.56281 6.56281 l 0.79216,0.43115 c 0.44597,0.24272 0.97661,0.70986 1.21422,1.06891 0.23214,0.35079 0.48429,0.97085 0.56034,1.37792 0.0761,0.40707 0.0848,0.97688 0.0196,1.26624 -0.0653,0.28936 -0.2125,0.70844 -0.32719,0.93127 -0.1147,0.22284 -0.47463,0.68347 -0.79984,1.02362 -0.38194,0.39949 -0.87798,0.7036 -1.40097,0.8589 -0.64993,0.19302 -2.03017,0.24045 -6.9968,0.24045 h -6.18715 v 1.63601 1.63601 h 7.51952 c 7.15813,0 7.56221,0.0159 8.40794,0.3324 0.59447,0.22242 1.12731,0.58781 1.61043,1.10431 0.54791,0.58577 1.53493,2.36965 4.09323,7.39776 1.85416,3.64423 4.49235,8.83518 5.8626,11.53546 l 2.49141,4.90959 -0.008,1.1584 c -0.005,0.8106 -0.11309,1.40444 -0.35976,1.97783 -0.19387,0.45069 -0.6611,1.12151 -1.03829,1.49073 -0.3772,0.36922 -1.0171,0.81481 -1.42201,0.99022 -0.40491,0.17539 -1.10431,0.35771 -1.55421,0.40516 -0.44991,0.0474 -1.09523,0.0188 -1.43406,-0.0636 z m -32.67682,-63.57015 c -0.22495,-0.0435 -0.77711,-0.1943 -1.22701,-0.33521 -0.4499,-0.14091 -1.19482,-0.46803 -1.65538,-0.72695 -0.46055,-0.2589 -1.2428,-0.87941 -1.73831,-1.3789 -0.49553,-0.49949 -1.12967,-1.36467 -1.40922,-1.92262 -0.27956,-0.55797 -0.62002,-1.45327 -0.7566,-1.98956 -0.13659,-0.53629 -0.24834,-1.34905 -0.24834,-1.80614 0,-0.45709 0.11202,-1.26984 0.24894,-1.80614 0.13692,-0.5363 0.47158,-1.4327 0.74371,-1.99201 0.29353,-0.6033 0.89324,-1.41539 1.47446,-1.99661 0.58122,-0.58121 1.39331,-1.18094 1.99661,-1.47446 0.55932,-0.27212 1.45572,-0.60678 1.992,-0.74371 0.5363,-0.13692 1.34906,-0.24894 1.80615,-0.24894 0.45708,0 1.26985,0.11202 1.80614,0.24894 0.5363,0.13693 1.4327,0.47159 1.992,0.74371 0.59341,0.28872 1.41297,0.89082 1.9679,1.44574 0.54196,0.54196 1.17638,1.40072 1.47507,1.99662 0.28825,0.5751 0.63585,1.48442 0.77242,2.02072 0.13658,0.5363 0.24834,1.34905 0.24834,1.80614 0,0.45709 -0.11176,1.26985 -0.24834,1.80614 -0.13657,0.53629 -0.47705,1.43159 -0.7566,1.98956 -0.27956,0.55795 -0.91024,1.41965 -1.40155,1.91489 -0.49129,0.49522 -1.22188,1.093 -1.62353,1.32838 -0.40163,0.23538 -1.15001,0.5731 -1.66305,0.75048 -0.51303,0.17737 -1.48494,0.35096 -2.15979,0.38573 -0.67486,0.0347 -1.41107,0.0276 -1.63602,-0.0158 z"
       id="path9" /></g></svg>
