<?xml version="1.0" encoding="UTF-8" standalone="no"?>
<!-- Created with Inkscape (http://www.inkscape.org/) -->

<svg
   width="100mm"
   height="100mm"
   viewBox="0 0 100 100"
   version="1.1"
   id="svg1"
   xml:space="preserve"
   inkscape:version="1.4 (86a8ad7, 2024-10-11)"
   sodipodi:docname="011 UNISEX.svg"
   xmlns:inkscape="http://www.inkscape.org/namespaces/inkscape"
   xmlns:sodipodi="http://sodipodi.sourceforge.net/DTD/sodipodi-0.dtd"
   xmlns="http://www.w3.org/2000/svg"
   xmlns:svg="http://www.w3.org/2000/svg"><sodipodi:namedview
     id="namedview1"
     pagecolor="#ffffff"
     bordercolor="#000000"
     borderopacity="0.25"
     inkscape:showpageshadow="2"
     inkscape:pageopacity="0.0"
     inkscape:pagecheckerboard="0"
     inkscape:deskcolor="#d1d1d1"
     inkscape:document-units="mm"
     inkscape:zoom="0.82582071"
     inkscape:cx="228.86324"
     inkscape:cy="80.525953"
     inkscape:window-width="1920"
     inkscape:window-height="1009"
     inkscape:window-x="1912"
     inkscape:window-y="-8"
     inkscape:window-maximized="1"
     inkscape:current-layer="layer1" /><defs
     id="defs1"><g
       id="g1" /><clipPath
       id="2f9b845a10"><path
         d="M 212 97 L 337.3125 97 L 337.3125 356.25 L 212 356.25 Z M 212 97 "
         clip-rule="nonzero"
         id="path1-2" /></clipPath><clipPath
       id="6e44c0d75b"><path
         d="M 248 37.5 L 302 37.5 L 302 92 L 248 92 Z M 248 37.5 "
         clip-rule="nonzero"
         id="path2" /></clipPath><clipPath
       id="e042c84afc"><path
         d="M 48.5625 96 L 196 96 L 196 356 L 48.5625 356 Z M 48.5625 96 "
         clip-rule="nonzero"
         id="path3" /></clipPath><clipPath
       id="6b8659f18a"><path
         d="M 95 37.5 L 149 37.5 L 149 92 L 95 92 Z M 95 37.5 "
         clip-rule="nonzero"
         id="path4" /></clipPath></defs><g
     inkscape:label="Layer 1"
     inkscape:groupmode="layer"
     id="layer1"
     transform="translate(-73.121366,-116.62135)"><g
       id="g15"
       style="fill:#000000;fill-opacity:1;font-variation-settings:normal;opacity:1;vector-effect:none;stroke-width:0.51449385;stroke-linecap:butt;stroke-linejoin:miter;stroke-miterlimit:4;stroke-dasharray:none;stroke-dashoffset:0;stroke-opacity:1;-inkscape-stroke:none;stop-color:#000000;stop-opacity:1"
       transform="matrix(0.80658884,0,0,0.80658884,-197.99642,37.689806)"><g
         clip-path="url(#2f9b845a10)"
         id="g5"
         transform="matrix(0.35277778,0,0,0.35277778,330.04633,90.394789)"
         style="fill:#000000;fill-opacity:1;font-variation-settings:normal;vector-effect:none;stroke-width:1.45840776;stroke-linecap:butt;stroke-linejoin:miter;stroke-miterlimit:4;stroke-dasharray:none;stroke-dashoffset:0;stroke-opacity:1;-inkscape-stroke:none;stop-color:#000000;stop-opacity:1"><path
           fill="#231f20"
           d="m 236,212.19531 c 0,0.76953 -0.0742,1.53516 -0.22656,2.28906 -0.14844,0.75391 -0.3711,1.48829 -0.66407,2.19922 -0.29687,0.71485 -0.65625,1.39063 -1.08593,2.03125 -0.42578,0.64063 -0.91407,1.23047 -1.45703,1.77735 -0.54297,0.54297 -1.13672,1.03125 -1.77735,1.45703 -0.64062,0.42969 -1.3164,0.78906 -2.02734,1.08594 -0.71094,0.29296 -1.44531,0.51562 -2.19922,0.66796 -0.75391,0.14844 -1.51563,0.22266 -2.28906,0.22266 -0.76953,0 -1.53125,-0.0742 -2.28516,-0.22266 -0.75781,-0.15234 -1.48828,-0.375 -2.19922,-0.66796 -0.71094,-0.29688 -1.38672,-0.65625 -2.02734,-1.08594 -0.64063,-0.42578 -1.23438,-0.91406 -1.77735,-1.45703 -0.54687,-0.54688 -1.03125,-1.13672 -1.45703,-1.77735 -0.42968,-0.64062 -0.78906,-1.3164 -1.08593,-2.03125 -0.29297,-0.71093 -0.51563,-1.44531 -0.66797,-2.19922 -0.14844,-0.7539 -0.22266,-1.51953 -0.22266,-2.28906 v -82.04687 c 0,-1.07813 0.0508,-2.15235 0.15625,-3.22656 0.10547,-1.07422 0.26563,-2.14063 0.47656,-3.19922 0.20703,-1.05469 0.46875,-2.10157 0.78516,-3.13282 0.3125,-1.03515 0.67578,-2.04687 1.08594,-3.04296 0.41406,-1 0.875,-1.97266 1.38281,-2.92188 0.50781,-0.95312 1.0625,-1.87891 1.66016,-2.77344 0.59765,-0.89843 1.24218,-1.76172 1.92578,-2.59765 0.68359,-0.83203 1.40625,-1.63282 2.16797,-2.39453 0.76562,-0.76172 1.5625,-1.48438 2.39453,-2.17188 0.83593,-0.68359 1.69922,-1.32422 2.59765,-1.92187 0.89453,-0.60157 1.82032,-1.15625 2.76953,-1.66407 0.94922,-0.50781 1.92579,-0.96875 2.92188,-1.38281 0.99609,-0.410156 2.00781,-0.773438 3.04297,-1.085938 1.03125,-0.316406 2.07422,-0.578124 3.13281,-0.785156 1.05859,-0.210937 2.12109,-0.371094 3.19531,-0.476562 1.07422,-0.105469 2.14844,-0.15625 3.22657,-0.15625 h 58.95312 c 1.07813,0 2.15234,0.05078 3.22656,0.15625 1.07422,0.105468 2.14063,0.265625 3.19532,0.476562 1.05859,0.207032 2.10546,0.46875 3.13671,0.785156 1.03125,0.3125 2.04297,0.675782 3.03907,1.085938 1,0.41406 1.97265,0.875 2.92187,1.38281 0.95313,0.50782 1.875,1.0625 2.77344,1.66407 0.89453,0.59765 1.76172,1.23828 2.59375,1.92187 0.83203,0.6875 1.63281,1.41016 2.39453,2.17188 0.76172,0.76171 1.48438,1.5625 2.16797,2.39453 0.6875,0.83593 1.32812,1.69922 1.92578,2.59765 0.60156,0.89453 1.15234,1.82032 1.66016,2.77344 0.50781,0.94922 0.96875,1.92188 1.38281,2.92188 0.41406,0.99609 0.77734,2.00781 1.08984,3.04296 0.3125,1.03125 0.57422,2.07813 0.78516,3.13282 0.21094,1.05859 0.36719,2.125 0.47266,3.19922 0.10546,1.07421 0.16015,2.14843 0.16015,3.22656 v 82.04687 c 0,0.77344 -0.0781,1.53906 -0.22656,2.30078 -0.15234,0.75782 -0.375,1.49219 -0.67188,2.20703 -0.29687,0.71485 -0.65625,1.39454 -1.08593,2.03907 -0.42969,0.64062 -0.91797,1.23437 -1.46485,1.78125 -0.54687,0.54687 -1.14062,1.03515 -1.78515,1.46484 -0.64453,0.42969 -1.32032,0.79297 -2.03516,1.08984 -0.71484,0.29688 -1.44922,0.51954 -2.21094,0.67188 -0.75781,0.14844 -1.52343,0.22656 -2.29687,0.22656 -0.77344,0 -1.53906,-0.0781 -2.29688,-0.22656 -0.75781,-0.15234 -1.49218,-0.375 -2.20703,-0.67188 -0.71484,-0.29687 -1.39453,-0.66015 -2.03515,-1.08984 -0.64454,-0.42969 -1.23829,-0.91797 -1.78516,-1.46484 -0.54688,-0.54688 -1.03516,-1.14063 -1.46484,-1.78125 -0.42969,-0.64453 -0.79297,-1.32422 -1.08594,-2.03907 -0.29688,-0.71484 -0.51953,-1.44921 -0.67188,-2.20703 -0.14843,-0.76172 -0.22656,-1.52734 -0.22656,-2.30078 v -74.67578 h -6.41016 v 203.54688 c 0.0117,0.49218 0,0.98437 -0.0391,1.47265 -0.0351,0.49219 -0.0976,0.97656 -0.18359,1.46094 -0.0859,0.48437 -0.19531,0.96484 -0.32813,1.4375 -0.13672,0.47266 -0.29297,0.9375 -0.47265,1.39453 -0.17969,0.45703 -0.38282,0.90625 -0.60547,1.34375 -0.22656,0.4375 -0.47266,0.86328 -0.73828,1.27344 -0.26953,0.41406 -0.55469,0.8125 -0.86328,1.19922 -0.30469,0.38281 -0.62891,0.75 -0.97266,1.10156 -0.34375,0.35156 -0.70703,0.6875 -1.08203,1.00391 -0.375,0.3125 -0.76953,0.60937 -1.17578,0.88671 -0.40625,0.27735 -0.82422,0.53125 -1.25782,0.76954 -0.42968,0.23437 -0.87109,0.44531 -1.32421,0.63671 -0.45313,0.19141 -0.91407,0.35938 -1.38672,0.50391 -0.46875,0.14453 -0.94532,0.26563 -1.42578,0.36328 -0.48047,0.0977 -0.96875,0.17188 -1.45704,0.21875 -0.48828,0.0508 -0.98046,0.0742 -1.47265,0.0742 -0.48828,0 -0.98047,-0.0234 -1.46875,-0.0742 -0.48828,-0.0469 -0.97656,-0.12109 -1.45703,-0.21875 -0.48047,-0.0976 -0.95703,-0.21875 -1.42578,-0.36328 -0.47266,-0.14453 -0.9336,-0.3125 -1.38672,-0.50391 -0.45313,-0.1914 -0.89453,-0.40234 -1.32813,-0.63671 -0.42969,-0.23829 -0.84765,-0.49219 -1.2539,-0.76954 -0.40625,-0.27734 -0.80079,-0.57421 -1.17579,-0.88671 -0.3789,-0.31641 -0.73828,-0.65235 -1.08203,-1.00391 -0.34375,-0.35156 -0.66797,-0.71875 -0.97265,-1.10156 -0.3086,-0.38672 -0.59375,-0.78516 -0.86328,-1.19922 -0.26563,-0.41016 -0.51172,-0.83594 -0.73829,-1.27344 -0.22265,-0.4375 -0.42578,-0.88672 -0.60546,-1.34375 -0.17969,-0.45703 -0.33594,-0.92187 -0.47266,-1.39453 -0.13281,-0.47266 -0.24219,-0.95313 -0.32813,-1.4375 -0.0859,-0.48438 -0.14843,-0.96875 -0.1875,-1.46094 -0.0351,-0.48828 -0.0469,-0.98047 -0.0351,-1.47265 V 223.51953 h -5.7461 v 117.54688 c 0.0117,0.49218 -0.004,0.98437 -0.0391,1.47656 -0.0391,0.49219 -0.10156,0.98047 -0.1875,1.46875 -0.0859,0.48437 -0.19531,0.96484 -0.32812,1.4414 -0.13672,0.47266 -0.29297,0.94141 -0.47266,1.39844 -0.18359,0.46094 -0.38672,0.91016 -0.60937,1.34766 -0.22657,0.4375 -0.47266,0.86328 -0.74219,1.28125 -0.26563,0.41406 -0.55469,0.8125 -0.86328,1.19922 -0.3086,0.38281 -0.63282,0.7539 -0.98047,1.10547 -0.34375,0.35546 -0.70313,0.6875 -1.08203,1.0039 -0.37891,0.31641 -0.76953,0.61719 -1.17969,0.89453 -0.40625,0.27735 -0.82813,0.53125 -1.26172,0.76953 -0.43359,0.23438 -0.875,0.44922 -1.33203,0.64063 -0.45313,0.19141 -0.91406,0.35937 -1.38672,0.50391 -0.47266,0.14453 -0.94922,0.26953 -1.43359,0.36718 -0.48047,0.0977 -0.96875,0.16797 -1.46094,0.21875 -0.48828,0.0469 -0.98047,0.0742 -1.47656,0.0742 -0.49219,0 -0.98438,-0.0273 -1.47266,-0.0742 -0.49219,-0.0508 -0.98047,-0.12109 -1.46484,-0.21875 -0.48047,-0.0976 -0.95703,-0.22265 -1.42969,-0.36718 -0.47266,-0.14454 -0.93359,-0.3125 -1.39063,-0.50391 -0.45312,-0.19141 -0.89843,-0.40625 -1.33203,-0.64063 -0.42968,-0.23828 -0.85156,-0.49218 -1.25781,-0.76953 -0.41016,-0.27734 -0.80078,-0.57812 -1.17969,-0.89453 -0.3789,-0.3164 -0.73828,-0.64844 -1.08593,-1.0039 -0.34375,-0.35157 -0.66797,-0.72266 -0.97657,-1.10547 -0.30859,-0.38672 -0.59765,-0.78516 -0.86328,-1.19922 -0.26953,-0.41797 -0.51562,-0.84375 -0.74219,-1.28125 -0.22656,-0.4375 -0.42968,-0.88672 -0.60937,-1.34766 -0.17969,-0.45703 -0.33594,-0.92578 -0.47266,-1.39844 -0.13281,-0.47656 -0.24218,-0.95703 -0.32812,-1.4414 -0.0859,-0.48828 -0.14844,-0.97656 -0.1875,-1.46875 -0.0391,-0.49219 -0.0508,-0.98438 -0.0391,-1.47656 V 137.51953 H 236 Z m 0,0"
           fill-opacity="1"
           fill-rule="nonzero"
           id="path5"
           style="fill:#000000;fill-opacity:1;font-variation-settings:normal;vector-effect:none;stroke-width:1.45840776;stroke-linecap:butt;stroke-linejoin:miter;stroke-miterlimit:4;stroke-dasharray:none;stroke-dashoffset:0;stroke-opacity:1;-inkscape-stroke:none;stop-color:#000000;stop-opacity:1" /></g><g
         clip-path="url(#6e44c0d75b)"
         id="g6"
         transform="matrix(0.35277778,0,0,0.35277778,330.04633,90.394789)"
         style="fill:#000000;fill-opacity:1;font-variation-settings:normal;vector-effect:none;stroke-width:1.45840776;stroke-linecap:butt;stroke-linejoin:miter;stroke-miterlimit:4;stroke-dasharray:none;stroke-dashoffset:0;stroke-opacity:1;-inkscape-stroke:none;stop-color:#000000;stop-opacity:1"><path
           fill="#231f20"
           d="m 301.83984,64.25 c 0,0.878906 -0.043,1.75 -0.1289,2.625 -0.0859,0.871094 -0.21485,1.734375 -0.38282,2.59375 -0.17187,0.859375 -0.38281,1.710938 -0.63671,2.546875 -0.25782,0.839844 -0.55079,1.664063 -0.88672,2.472656 -0.33594,0.808594 -0.70703,1.601563 -1.1211,2.375 -0.41406,0.773438 -0.86328,1.523438 -1.34765,2.25 -0.48828,0.730469 -1.00782,1.433594 -1.56641,2.109375 -0.55469,0.675782 -1.14062,1.324219 -1.76172,1.945313 -0.61719,0.621093 -1.26562,1.207031 -1.94531,1.761719 -0.67578,0.558593 -1.37891,1.078124 -2.10547,1.566406 -0.73047,0.484375 -1.48047,0.933594 -2.25,1.347656 -0.77344,0.414062 -1.56641,0.789062 -2.375,1.125 -0.80859,0.332031 -1.63281,0.628906 -2.46875,0.882812 -0.83984,0.253907 -1.6875,0.464844 -2.54687,0.636719 -0.85938,0.171875 -1.72266,0.300781 -2.59375,0.386719 -0.875,0.08594 -1.7461,0.128906 -2.6211,0.128906 -0.8789,0 -1.75,-0.04297 -2.62109,-0.128906 -0.875,-0.08594 -1.73828,-0.214844 -2.59766,-0.386719 -0.85937,-0.171875 -1.70703,-0.382812 -2.54687,-0.636719 -0.83594,-0.253906 -1.66016,-0.550781 -2.46875,-0.882812 -0.8086,-0.335938 -1.60157,-0.710938 -2.375,-1.125 -0.76953,-0.414062 -1.51953,-0.863281 -2.25,-1.347656 -0.72657,-0.488282 -1.42969,-1.007813 -2.10547,-1.566406 -0.67969,-0.554688 -1.32813,-1.140626 -1.94531,-1.761719 -0.6211,-0.621094 -1.20704,-1.269531 -1.76172,-1.945313 -0.5586,-0.675781 -1.07813,-1.378906 -1.56641,-2.109375 -0.48437,-0.726562 -0.93359,-1.476562 -1.34766,-2.25 -0.41406,-0.773437 -0.78515,-1.566406 -1.12109,-2.375 -0.33594,-0.808593 -0.62891,-1.632812 -0.88281,-2.472656 -0.25781,-0.835937 -0.46875,-1.6875 -0.64063,-2.546875 -0.16797,-0.859375 -0.29687,-1.722656 -0.38281,-2.59375 -0.0859,-0.875 -0.12891,-1.746094 -0.12891,-2.625 0,-0.875 0.043,-1.75 0.12891,-2.621094 0.0859,-0.871094 0.21484,-1.738281 0.38281,-2.597656 0.17188,-0.859375 0.38282,-1.707031 0.64063,-2.546875 0.2539,-0.835937 0.54687,-1.660156 0.88281,-2.46875 0.33594,-0.8125 0.70703,-1.601563 1.12109,-2.375 0.41407,-0.773437 0.86329,-1.523437 1.34766,-2.25 0.48828,-0.730469 1.00781,-1.433594 1.56641,-2.109375 0.55468,-0.679688 1.14062,-1.328125 1.76172,-1.945312 0.61718,-0.621094 1.26562,-1.207032 1.94531,-1.761719 0.67578,-0.558594 1.3789,-1.078125 2.10547,-1.566407 0.73047,-0.484374 1.48047,-0.9375 2.25,-1.347656 0.77343,-0.414062 1.5664,-0.789062 2.375,-1.125 0.80859,-0.335937 1.63281,-0.628906 2.46875,-0.882812 0.83984,-0.253906 1.6875,-0.46875 2.54687,-0.636719 0.85938,-0.171875 1.72266,-0.300781 2.59766,-0.386719 0.87109,-0.08594 1.74219,-0.128906 2.62109,-0.128906 0.875,0 1.7461,0.04297 2.6211,0.128906 0.87109,0.08594 1.73437,0.214844 2.59375,0.386719 0.85937,0.167969 1.70703,0.382813 2.54687,0.636719 0.83594,0.253906 1.66016,0.546875 2.46875,0.882812 0.80859,0.335938 1.60156,0.710938 2.375,1.125 0.76953,0.410156 1.51953,0.863282 2.25,1.347656 0.72656,0.488282 1.42969,1.007813 2.10547,1.566407 0.67969,0.554687 1.32812,1.140625 1.94531,1.761719 0.6211,0.617187 1.20703,1.265624 1.76172,1.945312 0.55859,0.675781 1.07813,1.378906 1.56641,2.109375 0.48437,0.726563 0.93359,1.476563 1.34765,2.25 0.41407,0.773437 0.78516,1.5625 1.1211,2.375 0.33593,0.808594 0.6289,1.632813 0.88672,2.46875 0.2539,0.839844 0.46484,1.6875 0.63671,2.546875 0.16797,0.859375 0.29688,1.726562 0.38282,2.597656 0.0859,0.871094 0.1289,1.746094 0.1289,2.621094 z m 0,0"
           fill-opacity="1"
           fill-rule="nonzero"
           id="path6"
           style="fill:#000000;fill-opacity:1;font-variation-settings:normal;vector-effect:none;stroke-width:1.45840776;stroke-linecap:butt;stroke-linejoin:miter;stroke-miterlimit:4;stroke-dasharray:none;stroke-dashoffset:0;stroke-opacity:1;-inkscape-stroke:none;stop-color:#000000;stop-opacity:1" /></g><g
         clip-path="url(#e042c84afc)"
         id="g7"
         transform="matrix(0.35277778,0,0,0.35277778,330.04633,90.394789)"
         style="fill:#000000;fill-opacity:1;font-variation-settings:normal;vector-effect:none;stroke-width:1.45840776;stroke-linecap:butt;stroke-linejoin:miter;stroke-miterlimit:4;stroke-dasharray:none;stroke-dashoffset:0;stroke-opacity:1;-inkscape-stroke:none;stop-color:#000000;stop-opacity:1"><path
           fill="#231f20"
           d="m 70.082031,202.5 c -0.191406,0.69141 -0.449219,1.35937 -0.777343,1.99609 -0.324219,0.64063 -0.710938,1.24219 -1.152344,1.80469 -0.445313,0.56641 -0.941406,1.07813 -1.488282,1.54297 -0.546874,0.46484 -1.136718,0.87109 -1.761718,1.21875 -0.628906,0.34766 -1.285156,0.62891 -1.96875,0.84766 -0.683594,0.21875 -1.382813,0.36328 -2.097656,0.44531 -0.710938,0.0781 -1.425782,0.082 -2.140626,0.0195 -0.714843,-0.0625 -1.417968,-0.19531 -2.105468,-0.39844 -0.691406,-0.20312 -1.359375,-0.46875 -2,-0.79687 -0.640625,-0.33203 -1.242188,-0.72266 -1.808594,-1.17188 -0.566406,-0.44922 -1.082031,-0.94922 -1.546875,-1.5 -0.46875,-0.55078 -0.875,-1.14062 -1.226563,-1.76953 -0.351562,-0.63281 -0.640624,-1.28906 -0.863281,-1.97656 -0.222656,-0.6875 -0.375,-1.38672 -0.460937,-2.10547 -0.08594,-0.71484 -0.09766,-1.43359 -0.04297,-2.15234 0.05469,-0.72266 0.179687,-1.42969 0.375,-2.125 l 22.105469,-76.11719 c 0.492187,-1.70703 1.117187,-3.36328 1.878906,-4.96875 0.761719,-1.60547 1.644531,-3.14063 2.652344,-4.60156 1.007812,-1.46094 2.125,-2.83594 3.355468,-4.11719 1.230469,-1.28125 2.554688,-2.45313 3.972657,-3.52344 1.417969,-1.0664 2.914062,-2.01172 4.484375,-2.83984 1.574218,-0.824221 3.203125,-1.519534 4.886718,-2.082034 1.683594,-0.5625 3.402344,-0.988281 5.152344,-1.273437 1.753906,-0.285157 3.515625,-0.429688 5.292975,-0.429688 h 38.08593 c 1.77735,-0.0039 3.54297,0.136719 5.29297,0.421875 1.75391,0.28125 3.47266,0.703125 5.16016,1.265625 1.68359,0.5625 3.3125,1.257813 4.88672,2.082029 1.57421,0.82422 3.07031,1.77344 4.48828,2.83985 1.41797,1.07031 2.74609,2.24218 3.97265,3.52734 1.23047,1.28125 2.34766,2.65625 3.35547,4.11719 1.00781,1.46484 1.89063,3 2.64844,4.60937 0.75781,1.60547 1.38281,3.26172 1.87109,4.97266 l 22.10547,76.11719 c 0.19531,0.6914 0.32031,1.39843 0.375,2.11328 0.0586,0.71484 0.0469,1.42968 -0.0352,2.14453 -0.082,0.71094 -0.23438,1.41015 -0.45313,2.09375 -0.21484,0.68359 -0.5,1.34375 -0.84375,1.97265 -0.34375,0.62891 -0.75,1.21875 -1.20703,1.76954 -0.46094,0.55078 -0.96875,1.05078 -1.52734,1.5039 -0.5586,0.45313 -1.15625,0.84766 -1.78907,1.1836 -0.63281,0.33593 -1.29297,0.60546 -1.98047,0.8164 -0.6914,0.20703 -1.39843,0.33985 -2.11718,0.40625 -0.71875,0.0664 -1.4336,0.0625 -2.15235,-0.0117 -0.71875,-0.0781 -1.42187,-0.22265 -2.10937,-0.4414 -0.6875,-0.21485 -1.34766,-0.4961 -1.98047,-0.84375 -0.63281,-0.35157 -1.22656,-0.75782 -1.77734,-1.22266 -0.55079,-0.46484 -1.05079,-0.98047 -1.5,-1.54687 -0.44922,-0.5625 -0.83594,-1.16797 -1.16797,-1.8086 -0.32813,-0.64453 -0.58985,-1.3125 -0.78516,-2.00781 l -20.39062,-70.26563 h -6.3125 l 34.92578,120.63282 h -32.55078 v 90.66406 c -0.0195,0.79297 -0.11719,1.57812 -0.28907,2.35547 -0.17187,0.77344 -0.41797,1.52734 -0.73437,2.2539 -0.32031,0.73047 -0.70313,1.42188 -1.15625,2.07422 -0.45313,0.65235 -0.96094,1.25782 -1.53125,1.8125 -0.56641,0.55469 -1.1836,1.05078 -1.85156,1.48438 -0.66407,0.4375 -1.36329,0.80469 -2.09766,1.10156 -0.73828,0.30078 -1.49609,0.52734 -2.27344,0.67969 -0.78125,0.15234 -1.5664,0.22656 -2.36328,0.22656 -0.79297,0 -1.58203,-0.0742 -2.35937,-0.22656 -0.78125,-0.15235 -1.53907,-0.37891 -2.27344,-0.67969 -0.73828,-0.29687 -1.4375,-0.66406 -2.10156,-1.10156 -0.66407,-0.4336 -1.28125,-0.92969 -1.85157,-1.48438 -0.5664,-0.55468 -1.07812,-1.16015 -1.53125,-1.8125 -0.44921,-0.65234 -0.83593,-1.34375 -1.15234,-2.07422 -0.32031,-0.72656 -0.56641,-1.48046 -0.73828,-2.2539 -0.17188,-0.77735 -0.26953,-1.5625 -0.28906,-2.35547 v -90.66406 h -5.7461 v 90.66406 c -0.0195,0.79297 -0.11718,1.57812 -0.28906,2.35547 -0.17187,0.77344 -0.41797,1.52734 -0.73437,2.2539 -0.31641,0.73047 -0.70313,1.42188 -1.15625,2.07422 -0.44922,0.65235 -0.96094,1.25782 -1.53125,1.8125 -0.56641,0.55469 -1.1836,1.05078 -1.84766,1.48438 -0.66797,0.4375 -1.36719,0.80469 -2.10156,1.10156 -0.73828,0.30078 -1.4961,0.52734 -2.27344,0.67969 -0.78125,0.15234 -1.56641,0.22656 -2.36328,0.22656 -0.79297,0 -1.57813,-0.0742 -2.35938,-0.22656 -0.78125,-0.15235 -1.53906,-0.37891 -2.27343,-0.67969 -0.73438,-0.29687 -1.4375,-0.66406 -2.101569,-1.10156 -0.664062,-0.4336 -1.28125,-0.92969 -1.851562,-1.48438 -0.566406,-0.55468 -1.078125,-1.16015 -1.53125,-1.8125 -0.449219,-0.65234 -0.835938,-1.34375 -1.152344,-2.07422 -0.320312,-0.72656 -0.5625,-1.48046 -0.738281,-2.2539 -0.171875,-0.77735 -0.265625,-1.5625 -0.289063,-2.35547 V 252.86719 H 61.808594 L 96.742188,132.23437 h -6.320313 z m 0,0"
           fill-opacity="1"
           fill-rule="nonzero"
           id="path7"
           style="fill:#000000;fill-opacity:1;font-variation-settings:normal;vector-effect:none;stroke-width:1.45840776;stroke-linecap:butt;stroke-linejoin:miter;stroke-miterlimit:4;stroke-dasharray:none;stroke-dashoffset:0;stroke-opacity:1;-inkscape-stroke:none;stop-color:#000000;stop-opacity:1" /></g><g
         clip-path="url(#6b8659f18a)"
         id="g8"
         transform="matrix(0.35277778,0,0,0.35277778,330.04633,90.394789)"
         style="fill:#000000;fill-opacity:1;font-variation-settings:normal;vector-effect:none;stroke-width:1.45840776;stroke-linecap:butt;stroke-linejoin:miter;stroke-miterlimit:4;stroke-dasharray:none;stroke-dashoffset:0;stroke-opacity:1;-inkscape-stroke:none;stop-color:#000000;stop-opacity:1"><path
           fill="#231f20"
           d="m 148.71875,64.375 c 0,0.875 -0.043,1.75 -0.12891,2.621094 -0.0859,0.871094 -0.21484,1.738281 -0.38672,2.597656 -0.16796,0.859375 -0.38281,1.707031 -0.63671,2.546875 -0.25391,0.835937 -0.54688,1.660156 -0.88282,2.46875 -0.33593,0.8125 -0.71093,1.601563 -1.12109,2.375 -0.41406,0.773437 -0.86328,1.523437 -1.35156,2.25 -0.48438,0.730469 -1.00782,1.433594 -1.5625,2.109375 -0.55469,0.679688 -1.14453,1.328125 -1.76172,1.945312 -0.6211,0.621094 -1.26953,1.207032 -1.94531,1.761719 -0.67579,0.558594 -1.37891,1.078125 -2.10547,1.566407 -0.73047,0.484374 -1.48047,0.9375 -2.25391,1.347656 -0.76953,0.414062 -1.5625,0.789062 -2.37109,1.125 -0.8086,0.335937 -1.63282,0.628906 -2.47266,0.882812 -0.83594,0.253906 -1.68359,0.46875 -2.54297,0.636719 -0.85937,0.171875 -1.72656,0.300781 -2.59765,0.386719 -0.8711,0.08594 -1.7461,0.128906 -2.6211,0.128906 -0.875,0 -1.75,-0.04297 -2.62109,-0.128906 -0.87109,-0.08594 -1.73438,-0.214844 -2.59375,-0.386719 -0.85938,-0.167969 -1.70703,-0.382813 -2.54688,-0.636719 -0.83984,-0.253906 -1.66015,-0.546875 -2.47265,-0.882812 -0.8086,-0.335938 -1.59766,-0.710938 -2.3711,-1.125 -0.77343,-0.410156 -1.52343,-0.863282 -2.25,-1.347656 -0.72656,-0.488282 -1.42968,-1.007813 -2.10937,-1.566407 -0.67578,-0.554687 -1.32422,-1.140625 -1.94141,-1.761719 -0.62109,-0.617187 -1.20703,-1.265624 -1.76562,-1.945312 -0.55469,-0.675781 -1.07422,-1.378906 -1.562502,-2.109375 -0.484376,-0.726563 -0.933594,-1.476563 -1.347657,-2.25 -0.414062,-0.773437 -0.789062,-1.5625 -1.121093,-2.375 C 96.9375,73.800781 96.640625,72.976562 96.386719,72.140625 96.132812,71.300781 95.921875,70.453125 95.75,69.59375 95.578125,68.734375 95.449219,67.867188 95.363281,66.996094 95.277344,66.125 95.234375,65.25 95.234375,64.375 c 0,-0.878906 0.04297,-1.75 0.128906,-2.625 0.08594,-0.871094 0.214844,-1.738281 0.386719,-2.597656 0.171875,-0.855469 0.382812,-1.707032 0.636719,-2.542969 0.253906,-0.839844 0.550781,-1.664063 0.886719,-2.472656 0.332031,-0.808594 0.707031,-1.601563 1.121093,-2.375 0.414063,-0.773438 0.863281,-1.523438 1.347657,-2.25 0.488282,-0.730469 1.007812,-1.433594 1.562502,-2.109375 0.55859,-0.675782 1.14453,-1.324219 1.76562,-1.945313 0.61719,-0.621093 1.26563,-1.207031 1.94141,-1.761719 0.67969,-0.558593 1.38281,-1.078124 2.10937,-1.566406 0.72657,-0.484375 1.47657,-0.933594 2.25,-1.347656 0.77344,-0.414062 1.5625,-0.789062 2.3711,-1.125 0.8125,-0.332031 1.63281,-0.628906 2.47265,-0.882812 0.83985,-0.253907 1.6875,-0.46875 2.54688,-0.636719 0.85937,-0.171875 1.72266,-0.300781 2.59375,-0.386719 0.87109,-0.08594 1.74609,-0.128906 2.62109,-0.128906 0.875,0 1.75,0.04297 2.6211,0.128906 0.87109,0.08594 1.73828,0.214844 2.59765,0.386719 0.85938,0.167969 1.70703,0.382812 2.54297,0.636719 0.83984,0.253906 1.66406,0.550781 2.47266,0.882812 0.80859,0.335938 1.60156,0.710938 2.37109,1.125 0.77344,0.414062 1.52344,0.863281 2.25391,1.347656 0.72656,0.488282 1.42968,1.007813 2.10547,1.566406 0.67578,0.554688 1.32421,1.140626 1.94531,1.761719 0.61719,0.621094 1.20703,1.269531 1.76172,1.945313 0.55468,0.675781 1.07812,1.378906 1.5625,2.109375 0.48828,0.726562 0.9375,1.476562 1.35156,2.25 0.41016,0.773437 0.78516,1.566406 1.12109,2.375 0.33594,0.808593 0.62891,1.632812 0.88282,2.472656 0.2539,0.835937 0.46875,1.6875 0.63671,2.542969 0.17188,0.859375 0.30079,1.726562 0.38672,2.597656 0.0859,0.875 0.12891,1.746094 0.12891,2.625 z m 0,0"
           fill-opacity="1"
           fill-rule="nonzero"
           id="path8"
           style="fill:#000000;fill-opacity:1;font-variation-settings:normal;vector-effect:none;stroke-width:1.45840776;stroke-linecap:butt;stroke-linejoin:miter;stroke-miterlimit:4;stroke-dasharray:none;stroke-dashoffset:0;stroke-opacity:1;-inkscape-stroke:none;stop-color:#000000;stop-opacity:1" /></g></g></g></svg>
