<?xml version="1.0" encoding="UTF-8" standalone="no"?>
<!-- Created with Inkscape (http://www.inkscape.org/) -->

<svg
   width="600.5mm"
   height="600.5mm"
   viewBox="0 0 600.5 600.5"
   version="1.1"
   id="svg1"
   xml:space="preserve"
   inkscape:version="1.4 (86a8ad7, 2024-10-11)"
   sodipodi:docname="Clean Up After Your Dog.svg"
   inkscape:export-filename="keep_dogs_on_lead.png"
   inkscape:export-xdpi="600"
   inkscape:export-ydpi="600"
   xmlns:inkscape="http://www.inkscape.org/namespaces/inkscape"
   xmlns:sodipodi="http://sodipodi.sourceforge.net/DTD/sodipodi-0.dtd"
   xmlns="http://www.w3.org/2000/svg"
   xmlns:svg="http://www.w3.org/2000/svg"><sodipodi:namedview
     id="namedview1"
     pagecolor="#ffffff"
     bordercolor="#000000"
     borderopacity="0.25"
     inkscape:showpageshadow="2"
     inkscape:pageopacity="0.0"
     inkscape:pagecheckerboard="0"
     inkscape:deskcolor="#d1d1d1"
     inkscape:document-units="mm"
     showguides="true"
     inkscape:zoom="0.12708801"
     inkscape:cx="712.10493"
     inkscape:cy="1963.2064"
     inkscape:window-width="1920"
     inkscape:window-height="1009"
     inkscape:window-x="1912"
     inkscape:window-y="-8"
     inkscape:window-maximized="1"
     inkscape:current-layer="layer1" /><defs
     id="defs1"><clipPath
       clipPathUnits="userSpaceOnUse"
       id="clipPath1"><rect
         style="fill:none;stroke:#000000;stroke-width:0.47788"
         id="rect2"
         width="234.14815"
         height="235.3194"
         x="-12.675195"
         y="30.167377" /></clipPath><clipPath
       clipPathUnits="userSpaceOnUse"
       id="clipPath3"><path
         style="fill:none;stroke:#000000;stroke-width:0.499999"
         d="m 759.98139,257.4368 67.9015,-28.52231 3.12825,-3.12825 -0.36801,-4.9684 -0.29411,-7.29394 v -3.9686 c 0,-0.13012 -1.17102,-1.95177 -1.17102,-1.95177 l -1.95178,-0.55301 -1.26865,-0.0976 0.36431,-17.1525 33.49892,-82.58307 -84.83703,-82.234673 -131.67958,21.339377 -10.92992,114.503986 13.01182,77.02995 94.72602,27.06458 z"
         id="path3"
         sodipodi:nodetypes="cccccsccccccccccc" /></clipPath></defs><g
     inkscape:label="Layer 1"
     inkscape:groupmode="layer"
     id="layer1"
     transform="translate(201.9303,-0.48605999)"><text
       xml:space="preserve"
       style="font-style:normal;font-variant:normal;font-weight:900;font-stretch:normal;font-size:63.2679px;line-height:0.9;font-family:Arial;-inkscape-font-specification:'Arial Heavy';text-align:center;text-decoration-color:#000000;letter-spacing:0px;writing-mode:lr-tb;direction:ltr;text-anchor:middle;fill:#000000;fill-opacity:1;stroke:none;stroke-width:1.49451"
       x="95.910088"
       y="466.15417"
       id="text3-5"><tspan
         sodipodi:role="line"
         style="font-style:normal;font-variant:normal;font-weight:900;font-stretch:normal;line-height:0.9;font-family:Arial;-inkscape-font-specification:'Arial Heavy';text-align:center;text-anchor:middle;fill:#000000;fill-opacity:1;stroke:none;stroke-width:1.49451"
         x="95.910072"
         y="466.15417"
         id="tspan16">PLEASE CLEAN</tspan><tspan
         sodipodi:role="line"
         style="font-style:normal;font-variant:normal;font-weight:900;font-stretch:normal;line-height:0.9;font-family:Arial;-inkscape-font-specification:'Arial Heavy';text-align:center;text-anchor:middle;fill:#000000;fill-opacity:1;stroke:none;stroke-width:1.49451"
         x="95.91008"
         y="523.09528"
         id="tspan43">UP AFTER YOUR</tspan><tspan
         sodipodi:role="line"
         style="font-style:normal;font-variant:normal;font-weight:900;font-stretch:normal;line-height:0.9;font-family:Arial;-inkscape-font-specification:'Arial Heavy';text-align:center;text-anchor:middle;fill:#000000;fill-opacity:1;stroke:none;stroke-width:1.49451"
         x="95.91008"
         y="580.03638"
         id="tspan44">DOG</tspan></text><g
       id="g43"
       transform="matrix(5.0192044,0,0,5.0192044,-4009.0833,-1861.4235)"><path
         id="rect38"
         style="fill:#000000;fill-opacity:1;stroke:#000000;stroke-width:0.498999"
         d="m 767.092,418.93602 1.23972,21.701 h -1.89601 v 3.7052 h 2.10788 l 0.13591,2.3797 h 1.28829 v 2.13217 h 3.52847 v -2.13217 h 8.16953 v 2.13217 h 3.52795 v -2.13217 h 1.28829 l 0.13591,-2.3797 h 2.10788 v -3.7052 h -1.89601 l 1.23972,-21.701 z" /><path
         style="fill:#ffff00;fill-opacity:1;stroke:#000000;stroke-opacity:1"
         d="m 779.39289,417.44197 c -0.30732,-0.12968 -0.82468,-0.57312 -1.14967,-0.98543 -0.71254,-0.90395 -0.63173,-2.09656 0.26797,-3.95509 0.52714,-1.08894 0.55767,-1.33457 0.26607,-2.14097 -0.18116,-0.501 -0.28869,-0.9454 -0.23895,-0.98756 0.8666,-0.73445 2.46865,-0.86288 3.26423,-0.26168 0.50612,0.38246 0.50935,0.43142 0.0779,1.18323 -0.43816,0.76345 -0.42936,0.82812 0.33172,2.43688 0.97617,2.06345 0.98753,2.87416 0.0546,3.89807 -0.78099,0.85717 -1.97086,1.19359 -2.87387,0.81255 z"
         id="path37" /><g
         id="g42"
         style="fill:#000000;fill-opacity:1"
         transform="matrix(1.2902345,0,0,1.2902345,-304.49292,-123.68453)"><path
           style="fill:#000000;fill-opacity:1;stroke:#000000;stroke-opacity:1"
           d="m 851.96767,442.88311 c -1.70009,-0.77745 -2.46333,-2.45136 -1.88418,-4.13234 0.18889,-0.54826 1.33247,-2.76844 2.5413,-4.93374 l 2.19786,-3.93691 0.2923,-3.96875 c 0.38224,-5.18992 0.43477,-5.19523 3.92459,-0.39688 l 2.5978,3.57188 -0.086,1.47278 c -0.076,1.30019 -0.4097,2.05697 -2.8505,6.45811 -1.5206,2.74193 -3.06517,5.20768 -3.43239,5.47944 -0.89517,0.66248 -2.33009,0.83044 -3.30108,0.38641 z"
           id="path33" /><g
           id="g41"
           style="fill:#000000;fill-opacity:1"><path
             style="fill:#000000;fill-opacity:1;stroke:#000000;stroke-opacity:1"
             d="m 859.55845,396.0772 c -4.25671,-1.6213 -5.22485,-7.07525 -1.7625,-9.92917 2.8621,-2.35926 7.0743,-1.4362 8.7109,1.90892 0.9208,1.88201 0.8469,3.70666 -0.2242,5.53433 -1.2747,2.17504 -4.4542,3.35051 -6.7242,2.48592 z"
             id="path38" /><path
             style="fill:#000000;fill-opacity:1;stroke:#000000;stroke-opacity:1"
             d="m 879.39756,411.42219 c -0.2911,-0.008 -0.8032,-0.16647 -1.138,-0.35231 -0.5119,-0.28412 -1.3534,-0.21607 -5.287,0.42755 l -4.6782,0.76544 -0.5338,-0.64015 c -0.2936,-0.35208 -0.7951,-0.98674 -1.1145,-1.41036 l -0.5806,-0.77022 -0.015,4.66135 -0.015,4.66134 2.2874,4.06991 2.2874,4.0699 0.2415,5.68854 c 0.1329,3.1287 0.1983,6.44789 0.1453,7.37599 -0.088,1.55228 -0.1742,1.7589 -1.0698,2.57968 -0.8561,0.78453 -1.1473,0.89225 -2.4124,0.89225 -1.6839,0 -2.8563,-0.77916 -3.2974,-2.19147 -0.1463,-0.46818 -0.3479,-3.49656 -0.448,-6.72973 l -0.182,-5.8785 -3.4118,-4.57254 -3.41177,-4.57255 0.0227,-6.70771 c 0.0125,-3.68924 -0.0226,-6.75297 -0.0779,-6.80829 -0.0553,-0.0553 -2.35498,1.09883 -5.11035,2.56477 -5.87852,3.12756 -6.80625,3.37462 -8.03984,2.14103 -1.07467,-1.07467 -1.10427,-2.3754 -0.0788,-3.46127 0.40018,-0.42375 3.98414,-2.68414 7.96436,-5.02309 l 7.23675,-4.25263 2.3074,-0.0509 c 1.7941,-0.0396 2.4825,0.0526 3.0952,0.41448 0.4461,0.26354 2.0263,2.23302 3.6432,4.54066 1.5704,2.2414 2.8832,4.07526 2.9173,4.07526 1.1584,0 5.9358,-0.91588 6.2472,-1.19764 0.5122,-0.46357 1.3464,-0.49105 3.1519,-0.10386 3.12937,0.67114 4.21513,4.14284 -0.64545,5.79507 z"
             id="path41" /></g></g><g
         id="g40"
         transform="translate(-23.85364,-1.8401487)"
         style="fill:#ffffff;fill-opacity:1;stroke:none"><rect
           style="opacity:1;fill:#ffffff;fill-opacity:1;stroke:none;stroke-width:0.498999;stroke-linecap:butt;stroke-linejoin:miter;stroke-miterlimit:4;stroke-dasharray:none;stroke-dashoffset:0;stroke-opacity:1"
           id="rect40"
           width="0.92007434"
           height="19.229553"
           x="796.71838"
           y="424.08826"
           ry="2" /><rect
           style="fill:#ffffff;fill-opacity:1;stroke:none;stroke-width:0.498999;stroke-linecap:butt;stroke-linejoin:miter;stroke-miterlimit:4;stroke-dasharray:none;stroke-dashoffset:0;stroke-opacity:1"
           id="rect40-2"
           width="0.92007434"
           height="19.229553"
           x="800.97437"
           y="424.08826"
           ry="2" /><rect
           style="fill:#ffffff;fill-opacity:1;stroke:none;stroke-width:0.498999;stroke-linecap:butt;stroke-linejoin:miter;stroke-miterlimit:4;stroke-dasharray:none;stroke-dashoffset:0;stroke-opacity:1"
           id="rect40-1"
           width="0.92007434"
           height="19.229553"
           x="805.23035"
           y="424.08826"
           ry="2" /></g><path
         style="font-variation-settings:normal;fill:#ffff00;fill-opacity:1;stroke:#000000;stroke-width:0.621291;stroke-linecap:butt;stroke-linejoin:miter;stroke-miterlimit:4;stroke-dasharray:none;stroke-dashoffset:0;stroke-opacity:1;stop-color:#000000"
         d="m 839.73366,414.06323 -6.79662,-5.65662 0.48368,-0.54582 0.48369,-0.54581 6.78028,5.64067 6.78027,5.64071 -0.46734,0.56173 -0.4673,0.56175 z"
         id="path12-2" /><path
         style="fill:#000000;stroke-width:0.566402"
         d="m 855.30184,449.01654 c 0.25682,-0.0948 0.29138,-0.25632 0.29138,-1.36209 v -1.25452 l -0.74932,-0.67974 c -1.26084,-1.14381 -1.14776,-1.49652 1.83987,-5.73757 2.45192,-3.48064 3.40692,-5.79479 4.36686,-10.58197 0.20475,-1.02104 0.48622,-2.67306 0.62551,-3.67115 l 0.25325,-1.81471 1.73983,-0.0896 c 3.59831,-0.18533 5.01127,-0.96892 6.25127,-3.46676 0.95613,-1.92607 0.96261,-1.91514 -2.02103,-3.41151 -3.04665,-1.52797 -3.01845,-1.50065 -3.39442,-3.28792 -0.22374,-1.06372 -0.55401,-1.61929 -1.1553,-1.94342 -0.2687,-0.14486 -4.5901,-0.41086 -7.21267,-0.444 -1.25465,-0.0158 -1.53908,0.026 -1.87321,0.27544 -0.51248,0.38262 -2.64842,4.63035 -2.76837,5.5054 -0.17895,1.30561 0.62188,2.88944 1.75966,3.48021 0.26248,0.13628 0.82359,0.24134 1.28905,0.24134 0.96676,0 1.57241,-0.27606 2.21747,-1.01075 0.56098,-0.63891 0.77296,-1.34246 0.7937,-2.6343 l 0.0158,-0.9741 0.2195,0.67437 c 0.30735,0.94434 0.1973,2.73362 -0.21774,3.54033 -0.64681,1.25722 -1.69671,1.78689 -3.31206,1.67092 -1.01182,-0.0726 -1.93231,-0.43563 -2.48897,-0.98153 -0.29809,-0.29236 -0.30348,-0.2912 -1.00007,0.21522 -1.05045,0.76363 -3.07103,1.65747 -4.53026,2.00405 -1.40029,0.33257 -3.7025,0.58133 -5.45482,0.58941 -3.31873,0.0153 -6.06504,1.54606 -7.40277,4.1262 -0.61954,1.19498 -0.92961,2.29218 -1.16464,4.12116 -0.23982,1.86654 -0.63554,3.04188 -1.77552,5.27371 -1.40589,2.75242 -1.52563,3.37312 -1.52563,7.90942 0,1.97095 0.0524,3.61592 0.1164,3.65548 0.0641,0.0395 1.3959,0.0894 2.95974,0.11076 l 2.84336,0.0388 0.0437,-1.24251 c 0.0494,-1.40038 -0.089,-1.73985 -0.93589,-2.29495 -0.71438,-0.46829 -0.98116,-0.99586 -0.98116,-1.9403 0,-1.00148 0.47796,-2.01125 1.16939,-2.47056 0.27225,-0.18085 0.94662,-0.47748 1.49861,-0.65918 2.74071,-0.90217 4.95198,-2.52148 5.84844,-4.28281 0.38688,-0.76012 0.98061,-1.25053 1.51399,-1.25053 0.22447,0 0.85459,0.30336 1.44093,0.69372 0.57309,0.38153 1.61519,0.9568 2.3158,1.27838 1.88378,0.86463 1.96712,0.91401 2.30045,1.36279 0.43714,0.5886 0.51994,1.57633 0.53425,6.37328 0.0109,3.67622 0.0433,4.25004 0.24418,4.3271 0.33698,0.12932 5.12761,0.14593 5.47151,0.0189 z m -15.58365,0 c 0.30292,-0.11254 0.34193,-0.35958 0.28995,-1.83714 -0.0336,-0.95684 -0.17749,-1.20864 -0.90149,-1.57799 -0.56772,-0.28964 -1.0471,-0.93433 -1.0471,-1.4082 0,-0.53027 0.41133,-1.03441 1.26276,-1.54772 1.15212,-0.69456 2.6779,-2.13407 3.3263,-3.13825 0.27525,-0.42631 0.6744,-1.29321 0.88697,-1.92645 0.36638,-1.09142 0.37312,-1.16613 0.12949,-1.43534 -0.26178,-0.28927 -0.75051,-0.36791 -1.05211,-0.1693 -0.0919,0.0606 -0.32015,0.41357 -0.50711,0.78447 -0.55614,1.10332 -2.28241,2.67071 -3.82413,3.47222 -0.74038,0.38488 -1.76145,0.83873 -2.26911,1.00855 -1.89944,0.63542 -2.14916,0.90617 -2.14916,2.33044 0,0.87162 0.0894,1.02171 0.97563,1.63735 0.62716,0.43571 0.96547,1.34607 0.96928,2.60836 0.003,0.76722 0.0625,1.11389 0.20259,1.16766 0.32093,0.12315 3.39025,0.1491 3.70724,0.0313 z m 21.01618,-0.0632 c 0.0572,-0.0572 0.10247,-0.64906 0.10063,-1.31531 -0.004,-1.35167 -0.15849,-1.67095 -1.02004,-2.10431 -0.85039,-0.42774 -0.91434,-0.80463 -0.68793,-4.05245 0.10919,-1.56605 0.20171,-3.1107 0.2056,-3.43256 l 0.007,-0.58521 -0.61991,0.95986 c -0.34094,0.52792 -1.07816,1.60203 -1.63826,2.38691 -1.14584,1.60573 -2.23764,3.41511 -2.23764,3.70835 0,0.10711 0.2385,0.33546 0.52998,0.50745 0.76767,0.45294 1.01776,1.03753 1.11202,2.59947 l 0.0814,1.34874 2.03157,0.0415 c 1.11736,0.0228 2.07834,-0.005 2.1355,-0.0624 z m -28.90115,-19.32579 c 0.0554,-0.29514 0.43228,-1.18388 0.83754,-1.97498 0.40526,-0.7911 0.7214,-1.44257 0.70253,-1.44771 -0.55241,-0.15048 -1.91539,-1.04164 -2.35228,-1.53798 -1.07735,-1.22392 -1.29944,-2.64354 -0.7476,-4.779 0.35253,-1.36423 0.29617,-1.95476 -0.2483,-2.60182 -0.73423,-0.87259 -2.13252,-0.89429 -2.94154,-0.0457 -0.84295,0.88422 -1.33296,3.91859 -0.9621,5.95789 0.62232,3.42207 2.1811,5.37834 5.51512,6.92147 0.0528,0.0245 0.14126,-0.19707 0.19663,-0.49221 z"
         id="path14-7"
         sodipodi:nodetypes="sscsssscsssssssssssscssssssssssssscssssssssssssssssssssssssssssssssscssscssssscssssssssssssss" /><path
         style="font-variation-settings:normal;fill:#ffff00;fill-opacity:1;stroke:#000000;stroke-width:0.54921;stroke-linecap:butt;stroke-linejoin:miter;stroke-miterlimit:4;stroke-dasharray:none;stroke-dashoffset:0;stroke-opacity:1;stop-color:#000000"
         d="m 855.54995,425.53678 -6.839,-3.78544 0.32956,-0.55409 0.32954,-0.5541 6.82213,3.77432 6.82213,3.77432 -0.31269,0.56521 -0.31269,0.5652 z"
         id="path12-6-9" /></g></g></svg>
