<?xml version="1.0" encoding="UTF-8" standalone="no"?>
<!-- Created with Inkscape (http://www.inkscape.org/) -->

<svg
   width="600.5mm"
   height="600.5mm"
   viewBox="0 0 600.5 600.5"
   version="1.1"
   id="svg1"
   xml:space="preserve"
   inkscape:version="1.4 (86a8ad7, 2024-10-11)"
   sodipodi:docname="Keep Dogs On Lead.svg"
   inkscape:export-filename="no_cold_callers.png"
   inkscape:export-xdpi="600"
   inkscape:export-ydpi="600"
   xmlns:inkscape="http://www.inkscape.org/namespaces/inkscape"
   xmlns:sodipodi="http://sodipodi.sourceforge.net/DTD/sodipodi-0.dtd"
   xmlns="http://www.w3.org/2000/svg"
   xmlns:svg="http://www.w3.org/2000/svg"><sodipodi:namedview
     id="namedview1"
     pagecolor="#ffffff"
     bordercolor="#000000"
     borderopacity="0.25"
     inkscape:showpageshadow="2"
     inkscape:pageopacity="0.0"
     inkscape:pagecheckerboard="0"
     inkscape:deskcolor="#d1d1d1"
     inkscape:document-units="mm"
     showguides="true"
     inkscape:zoom="0.25417602"
     inkscape:cx="721.94063"
     inkscape:cy="1327.82"
     inkscape:window-width="1920"
     inkscape:window-height="1009"
     inkscape:window-x="1912"
     inkscape:window-y="-8"
     inkscape:window-maximized="1"
     inkscape:current-layer="layer1" /><defs
     id="defs1"><clipPath
       clipPathUnits="userSpaceOnUse"
       id="clipPath1"><rect
         style="fill:none;stroke:#000000;stroke-width:0.47788"
         id="rect2"
         width="234.14815"
         height="235.3194"
         x="-12.675195"
         y="30.167377" /></clipPath><clipPath
       clipPathUnits="userSpaceOnUse"
       id="clipPath3"><path
         style="fill:none;stroke:#000000;stroke-width:0.499999"
         d="m 759.98139,257.4368 67.9015,-28.52231 3.12825,-3.12825 -0.36801,-4.9684 -0.29411,-7.29394 v -3.9686 c 0,-0.13012 -1.17102,-1.95177 -1.17102,-1.95177 l -1.95178,-0.55301 -1.26865,-0.0976 0.36431,-17.1525 33.49892,-82.58307 -84.83703,-82.234673 -131.67958,21.339377 -10.92992,114.503986 13.01182,77.02995 94.72602,27.06458 z"
         id="path3"
         sodipodi:nodetypes="cccccsccccccccccc" /></clipPath></defs><g
     inkscape:label="Layer 1"
     inkscape:groupmode="layer"
     id="layer1"
     transform="translate(201.9303,-0.48605999)"><text
       xml:space="preserve"
       style="font-style:normal;font-variant:normal;font-weight:900;font-stretch:normal;font-size:80.7117px;line-height:0.9;font-family:Arial;-inkscape-font-specification:'Arial Heavy';text-align:center;text-decoration-color:#000000;letter-spacing:0px;writing-mode:lr-tb;direction:ltr;text-anchor:middle;fill:#000000;fill-opacity:1;stroke:none;stroke-width:1.90657"
       x="97.27533"
       y="469.38956"
       id="text3-5"><tspan
         sodipodi:role="line"
         style="font-style:normal;font-variant:normal;font-weight:900;font-stretch:normal;line-height:0.9;font-family:Arial;-inkscape-font-specification:'Arial Heavy';text-align:center;text-anchor:middle;fill:#000000;fill-opacity:1;stroke:none;stroke-width:1.90657"
         x="97.275337"
         y="469.38956"
         id="tspan6">KEEP DOGS</tspan><tspan
         sodipodi:role="line"
         style="font-style:normal;font-variant:normal;font-weight:900;font-stretch:normal;line-height:0.9;font-family:Arial;-inkscape-font-specification:'Arial Heavy';text-align:center;text-anchor:middle;fill:#000000;fill-opacity:1;stroke:none;stroke-width:1.90657"
         x="97.27533"
         y="542.03009"
         id="tspan16">ON LEAD</tspan></text><g
       id="g14"
       transform="matrix(3.493863,0,0,3.493863,-2582.9721,-2114.6424)"><path
         style="fill:#000000"
         d="m 737.48806,634.22933 c -6.08519,-2.40812 -7.66054,-10.42271 -2.94645,-14.99004 3.64103,-3.52767 9.3663,-3.44614 12.75972,0.18169 1.47719,1.57924 2.19932,2.9901 2.49477,4.87422 0.61802,3.94103 -1.33108,7.75811 -4.87777,9.55258 -2.04343,1.03388 -5.3525,1.2038 -7.43027,0.38155 z"
         id="path13" /><path
         style="font-variation-settings:normal;opacity:1;fill:#ffff00;fill-opacity:1;stroke:#000000;stroke-width:0.796;stroke-linecap:butt;stroke-linejoin:miter;stroke-miterlimit:4;stroke-dasharray:none;stroke-dashoffset:0;stroke-opacity:1;stop-color:#000000;stop-opacity:1"
         d="m 781.09311,674.37144 -5.35306,-9.98474 0.83678,-0.41574 0.83679,-0.41576 5.3413,9.95795 5.34129,9.95797 -0.82501,0.44252 -0.825,0.44253 z"
         id="path12" /><path
         style="fill:#000000"
         d="m 734.23329,717.03919 c -0.87422,-0.37016 -1.80029,-1.25359 -2.34038,-2.2326 -0.39801,-0.72149 -0.44992,-3.54461 -0.57017,-31.00927 -0.13644,-31.16332 -0.14958,-31.52037 -1.12448,-30.54634 -0.24942,0.24921 -0.36325,3.0104 -0.46302,11.23157 -0.0991,8.16629 -0.21723,11.04978 -0.47086,11.49369 -1.05697,1.84992 -4.48068,1.79436 -5.75891,-0.0935 -0.4996,-0.73785 -0.51449,-1.24241 -0.43993,-14.90696 0.0441,-8.07648 0.18977,-14.64571 0.33967,-15.31462 0.9608,-4.28728 4.51291,-7.735 8.77922,-8.52121 0.93386,-0.17209 4.77255,-0.24978 9.92188,-0.2008 l 8.39872,0.0799 1.51454,0.74373 c 0.83425,0.40966 1.94083,1.24158 2.46359,1.85208 0.52197,0.60959 2.50132,4.20063 4.39855,7.98007 1.89723,3.77945 3.60377,7.09197 3.79232,7.36116 0.31726,0.45296 0.78558,0.48737 6.28363,0.46171 6.17336,-0.0288 6.97183,0.0814 8.07482,1.11466 1.35475,1.26908 1.28917,4.07543 -0.12587,5.38685 l -0.68197,0.63203 h -9.15882 -9.15882 l -2.56141,-5.09323 -2.5614,-5.09323 -0.0151,30.45375 c -0.0155,31.29436 -0.0237,31.55234 -1.04475,32.75289 -1.07683,1.26619 -3.92135,1.83293 -6.12584,1.22051 -1.2175,-0.33823 -2.51064,-1.7082 -2.8731,-3.04382 -0.1896,-0.69865 -0.28909,-5.91395 -0.29273,-15.34583 -0.005,-13.88959 -0.10378,-15.72534 -0.78713,-14.68437 -0.16285,0.24808 -0.26423,5.95177 -0.27039,15.21354 -0.009,13.86785 -0.0414,14.88605 -0.50198,15.90026 -0.695,1.53033 -2.00534,2.27366 -4.21777,2.39265 -0.96843,0.0521 -2.05838,-0.0313 -2.42211,-0.18531 z"
         id="path8" /><path
         style="fill:#000000;stroke-width:0.625353"
         d="m 795.05802,716.5241 c 0.28355,-0.10468 0.32171,-0.283 0.32171,-1.50386 v -1.38509 l -0.8273,-0.75049 c -1.39209,-1.26286 -1.26722,-1.65228 2.03134,-6.33473 2.70713,-3.84291 3.76151,-6.39792 4.82139,-11.68335 0.22605,-1.12731 0.53683,-2.95127 0.69061,-4.05324 l 0.2796,-2.00358 1.92092,-0.0989 c 3.97281,-0.20462 5.53283,-1.06976 6.90188,-3.82758 1.05567,-2.12653 1.06282,-2.11447 -2.23137,-3.76658 -3.36375,-1.687 -3.33261,-1.65684 -3.7477,-3.63012 -0.24705,-1.17444 -0.61169,-1.78783 -1.27556,-2.1457 -0.29665,-0.15993 -5.06783,-0.45362 -7.96336,-0.49021 -1.38523,-0.0175 -1.69926,0.0287 -2.06817,0.30411 -0.56581,0.42244 -2.92406,5.11227 -3.05649,6.0784 -0.19758,1.4415 0.68658,3.19017 1.9428,3.84243 0.28979,0.15047 0.90931,0.26646 1.4232,0.26646 1.06739,0 1.73607,-0.30479 2.44828,-1.11595 0.61935,-0.7054 0.85339,-1.48218 0.87631,-2.90848 l 0.0173,-1.07548 0.24233,0.74456 c 0.33934,1.04263 0.21785,3.01813 -0.24039,3.90881 -0.71412,1.38807 -1.8733,1.97287 -3.65678,1.84483 -1.11713,-0.0802 -2.13342,-0.48097 -2.74801,-1.08369 -0.32913,-0.32279 -0.33507,-0.32151 -1.10418,0.23762 -1.15976,0.84311 -3.39064,1.82998 -5.00176,2.21263 -1.54603,0.36718 -4.08784,0.64183 -6.02255,0.65075 -3.66414,0.0169 -6.6963,1.70698 -8.17325,4.55566 -0.68404,1.31936 -1.02638,2.53075 -1.28585,4.55009 -0.2648,2.06081 -0.70169,3.35848 -1.96033,5.8226 -1.55222,3.03889 -1.6844,3.7242 -1.6844,8.73263 0,2.17609 0.0578,3.99227 0.12851,4.03595 0.0707,0.0436 1.54118,0.0987 3.26779,0.12228 l 3.13928,0.0428 0.0483,-1.37183 c 0.0545,-1.54613 -0.0983,-1.92094 -1.03329,-2.53381 -0.78874,-0.51703 -1.08328,-1.09951 -1.08328,-2.14225 0,-1.10571 0.5277,-2.22058 1.29109,-2.72769 0.30059,-0.19968 1.04515,-0.52718 1.65458,-0.72779 3.02597,-0.99607 5.4674,-2.78392 6.45717,-4.72857 0.42714,-0.83923 1.08265,-1.38068 1.67154,-1.38068 0.24785,0 0.94354,0.33493 1.5909,0.76592 0.63275,0.42124 1.78332,1.05639 2.55684,1.41143 2.07984,0.95463 2.17187,1.00915 2.53987,1.50463 0.48265,0.64987 0.57407,1.7404 0.58987,7.03662 0.0121,4.05884 0.0478,4.69238 0.26959,4.77746 0.37205,0.14278 5.66129,0.16112 6.04098,0.0209 z m -17.2056,0 c 0.33446,-0.12425 0.37751,-0.39701 0.32013,-2.02835 -0.0371,-1.05643 -0.19598,-1.33444 -0.99532,-1.74223 -0.62681,-0.31978 -1.15607,-1.03157 -1.15607,-1.55477 0,-0.58546 0.45413,-1.14207 1.39419,-1.7088 1.27203,-0.76685 2.9566,-2.35619 3.67249,-3.46488 0.30391,-0.47068 0.7446,-1.42781 0.97929,-2.12696 0.40451,-1.20501 0.41195,-1.2875 0.14297,-1.58473 -0.28903,-0.31937 -0.82862,-0.4062 -1.16162,-0.18692 -0.10153,0.0669 -0.35348,0.45662 -0.5599,0.86612 -0.61401,1.21815 -2.51994,2.94868 -4.22215,3.83361 -0.81742,0.42494 -1.94478,0.92603 -2.50526,1.11352 -2.09715,0.70155 -2.37284,1.00048 -2.37284,2.57299 0,0.96234 0.0987,1.12805 1.07715,1.80777 0.69246,0.48106 1.06597,1.48617 1.07017,2.87983 0.002,0.84708 0.069,1.22983 0.22368,1.2892 0.35434,0.13597 3.7431,0.16462 4.09309,0.0346 z m 23.20356,-0.0698 c 0.0631,-0.0631 0.11312,-0.71661 0.11109,-1.45221 -0.004,-1.49235 -0.17498,-1.84486 -1.1262,-2.32333 -0.93889,-0.47226 -1.00952,-0.88837 -0.75952,-4.47423 0.12055,-1.72904 0.22269,-3.43446 0.227,-3.78982 l 0.008,-0.64612 -0.68443,1.05977 c -0.37643,0.58286 -1.19038,1.76877 -1.80876,2.63534 -1.26512,1.77285 -2.47054,3.77055 -2.47054,4.09431 0,0.11826 0.26331,0.37038 0.58515,0.56027 0.84757,0.50008 1.12367,1.14551 1.22774,2.87002 l 0.0899,1.48912 2.24301,0.0458 c 1.23365,0.0252 2.29465,-0.006 2.35778,-0.0689 z m -31.90919,-21.33722 c 0.0612,-0.32586 0.47725,-1.3071 0.92469,-2.18054 0.44746,-0.87344 0.7965,-1.59271 0.77565,-1.59839 -0.60988,-0.16614 -2.11474,-1.15005 -2.5971,-1.69805 -1.18948,-1.3513 -1.43466,-2.91868 -0.82541,-5.2764 0.38923,-1.50622 0.32701,-2.15821 -0.27413,-2.87262 -0.81064,-0.9634 -2.35447,-0.98736 -3.2477,-0.0504 -0.93069,0.97625 -1.47168,4.32644 -1.06223,6.57799 0.68709,3.77824 2.40811,5.93812 6.08913,7.64186 0.0583,0.027 0.15596,-0.21758 0.2171,-0.54344 z"
         id="path14"
         sodipodi:nodetypes="sscsssscsssssssssssscssssssssssssscssssssssssssssssssssssssssssssssscssscssssscssssssssssssss" /><path
         style="font-variation-settings:normal;fill:#ffff00;fill-opacity:1;stroke:#000000;stroke-width:0.606373;stroke-linecap:butt;stroke-linejoin:miter;stroke-miterlimit:4;stroke-dasharray:none;stroke-dashoffset:0;stroke-opacity:1;stop-color:#000000"
         d="m 795.33195,690.83924 -7.55079,-4.17943 0.36384,-0.61176 0.36384,-0.61177 7.53219,4.16715 7.53219,4.16715 -0.34524,0.62404 -0.34525,0.62403 z"
         id="path12-6" /></g></g></svg>
