<?xml version="1.0" encoding="UTF-8" standalone="no"?>
<!-- Created with Inkscape (http://www.inkscape.org/) -->

<svg
   width="600.5mm"
   height="600.5mm"
   viewBox="0 0 600.5 600.5"
   version="1.1"
   id="svg1"
   xml:space="preserve"
   inkscape:version="1.4 (86a8ad7, 2024-10-11)"
   sodipodi:docname="No Cold Callers.svg"
   inkscape:export-filename="no_cold_callers.png"
   inkscape:export-xdpi="600"
   inkscape:export-ydpi="600"
   xmlns:inkscape="http://www.inkscape.org/namespaces/inkscape"
   xmlns:sodipodi="http://sodipodi.sourceforge.net/DTD/sodipodi-0.dtd"
   xmlns="http://www.w3.org/2000/svg"
   xmlns:svg="http://www.w3.org/2000/svg"><sodipodi:namedview
     id="namedview1"
     pagecolor="#ffffff"
     bordercolor="#000000"
     borderopacity="0.25"
     inkscape:showpageshadow="2"
     inkscape:pageopacity="0.0"
     inkscape:pagecheckerboard="0"
     inkscape:deskcolor="#d1d1d1"
     inkscape:document-units="mm"
     showguides="true"
     inkscape:zoom="0.089864795"
     inkscape:cx="1908.4225"
     inkscape:cy="1441.0538"
     inkscape:window-width="1920"
     inkscape:window-height="1009"
     inkscape:window-x="1912"
     inkscape:window-y="-8"
     inkscape:window-maximized="1"
     inkscape:current-layer="layer1" /><defs
     id="defs1"><clipPath
       clipPathUnits="userSpaceOnUse"
       id="clipPath1"><rect
         style="fill:none;stroke:#000000;stroke-width:0.47788"
         id="rect2"
         width="234.14815"
         height="235.3194"
         x="-12.675195"
         y="30.167377" /></clipPath><clipPath
       clipPathUnits="userSpaceOnUse"
       id="clipPath3"><path
         style="fill:none;stroke:#000000;stroke-width:0.499999"
         d="m 759.98139,257.4368 67.9015,-28.52231 3.12825,-3.12825 -0.36801,-4.9684 -0.29411,-7.29394 v -3.9686 c 0,-0.13012 -1.17102,-1.95177 -1.17102,-1.95177 l -1.95178,-0.55301 -1.26865,-0.0976 0.36431,-17.1525 33.49892,-82.58307 -84.83703,-82.234673 -131.67958,21.339377 -10.92992,114.503986 13.01182,77.02995 94.72602,27.06458 z"
         id="path3"
         sodipodi:nodetypes="cccccsccccccccccc" /></clipPath></defs><g
     inkscape:label="Layer 1"
     inkscape:groupmode="layer"
     id="layer1"
     transform="translate(201.9303,-0.48605999)"><text
       xml:space="preserve"
       style="font-weight:bold;font-size:34.7929px;line-height:1.3;font-family:Arial;-inkscape-font-specification:'Arial Bold';text-align:center;text-decoration-color:#000000;letter-spacing:0px;writing-mode:lr-tb;direction:ltr;text-anchor:middle;fill:#000000;fill-opacity:1;stroke:none;stroke-width:0.821879"
       x="94.721848"
       y="432.16833"
       id="text3-5"><tspan
         sodipodi:role="line"
         id="tspan3-5"
         style="text-align:center;text-anchor:middle;fill:#000000;fill-opacity:1;stroke:none;stroke-width:0.821879"
         x="94.721848"
         y="432.16833">NO SALES PEOPLE</tspan><tspan
         sodipodi:role="line"
         style="text-align:center;text-anchor:middle;fill:#000000;fill-opacity:1;stroke:none;stroke-width:0.821879"
         x="94.721848"
         y="477.39911"
         id="tspan4">NO CANVASSERS</tspan><tspan
         sodipodi:role="line"
         style="text-align:center;text-anchor:middle;fill:#000000;fill-opacity:1;stroke:none;stroke-width:0.821879"
         x="94.72184"
         y="522.62988"
         id="tspan5">NO COLD CALLERS</tspan><tspan
         sodipodi:role="line"
         style="text-align:center;text-anchor:middle;fill:#000000;fill-opacity:1;stroke:none;stroke-width:0.821879"
         x="94.721855"
         y="567.86066"
         id="tspan6">NO RELIGIOUS GROUPS</tspan></text><text
       xml:space="preserve"
       style="font-weight:bold;font-size:110.932px;line-height:1.3;font-family:Arial;-inkscape-font-specification:'Arial Bold';text-align:center;text-decoration-color:#000000;letter-spacing:0px;writing-mode:lr-tb;direction:ltr;text-anchor:middle;fill:#000000;fill-opacity:1;stroke:none;stroke-width:2.62044"
       x="95.705208"
       y="100.04446"
       id="text3"><tspan
         sodipodi:role="line"
         id="tspan3"
         style="fill:#000000;fill-opacity:1;stroke:none;stroke-width:2.62044"
         x="95.705215"
         y="100.04446">STOP</tspan></text><path
       style="fill:#ffff00;fill-opacity:1;stroke:#000000;stroke-width:1.79367;stroke-opacity:1"
       d="m 109.37703,375.94103 c -8.60841,-0.68274 -19.383407,-2.8769 -26.57618,-5.41184 C 67.849726,365.26004 57.338828,357.23543 47.691169,343.7245 41.879629,335.58582 23.828722,306.1423 11.587454,284.83438 0.66010186,265.81356 -0.91398583,262.1053 -1.3077858,254.45566 c -0.1964426,-3.81594 -0.074437,-5.3246 0.59449355,-7.35591 1.83013385,-5.55686 6.27957995,-10.52482 11.90798625,-13.29567 7.643396,-3.76283 16.305201,-1.67235 24.754349,5.97429 1.377197,1.24641 5.007689,5.28455 8.067778,8.97367 l 5.56378,6.7075 0.237303,-49.35577 c 0.214415,-44.60163 0.313407,-49.54488 1.0277,-51.31878 3.392706,-8.42572 9.813986,-13.45536 18.675391,-14.62801 2.842606,-0.37617 8.258157,0.64409 11.091598,2.0896 l 1.950955,0.99531 0.009,-2.97573 c 0.03085,-11.14892 6.357444,-19.80684 16.381181,-22.4177 9.996881,-2.60385 20.539661,2.38506 24.948061,11.80564 1.52727,3.26369 2.62715,10.57631 2.12778,14.14661 -0.28841,2.06186 -0.16825,2.10808 2.3607,0.90777 10.52664,-4.99631 23.38239,-0.20483 28.52934,10.63319 1.4889,3.13519 1.74296,4.19278 1.94774,8.10762 0.20466,3.91266 0.33558,4.45816 0.99999,4.16658 7.31451,-3.21011 13.56853,-3.24609 19.95815,-0.11479 5.40904,2.65074 9.21696,7.07864 10.99191,12.78154 0.86162,2.7684 0.89911,5.29023 0.89911,60.4831 0,49.15939 -0.10708,58.41173 -0.73171,63.17607 -4.50344,34.35412 -22.5521,60.2099 -48.02239,68.79489 -7.26624,2.44914 -11.5259,3.08545 -21.72025,3.24449 -5.22033,0.0814 -10.55929,0.0633 -11.86438,-0.0402 z"
       id="path6" /><path
       style="fill:#000000;fill-opacity:1;stroke:#000000;stroke-width:1.79367;stroke-opacity:1"
       d="m 130.16506,365.09133 c 23.83681,-3.59294 41.077,-21.84106 48.20362,-51.02179 2.92102,-11.96039 2.90644,-11.59269 2.90644,-73.2753 0,-41.52431 -0.14403,-56.56202 -0.55347,-57.75518 -0.83359,-2.42969 -2.66787,-4.59845 -5.09705,-6.02651 -1.77729,-1.04485 -2.74978,-1.27862 -5.2647,-1.26558 -4.53614,0.0235 -7.93458,2.08828 -10.12819,6.15348 -1.00899,1.86989 -1.02788,2.32697 -1.26161,30.53072 l -0.23728,28.63244 -1.54986,1.38442 c -2.52532,2.25578 -6.18462,1.7263 -7.81934,-1.13142 -0.46097,-0.80586 -0.65092,-10.06683 -0.83416,-40.67045 l -0.2373,-39.627 -1.34665,-2.29106 c -1.54498,-2.6284 -4.66033,-4.8337 -7.50814,-5.31483 -4.6209,-0.7807 -9.57699,1.52017 -11.783,5.47029 l -1.19265,2.1356 -0.23728,38.59835 -0.23729,38.59834 -1.54985,1.38459 c -2.19025,1.95668 -5.16143,1.95619 -7.11879,-0.001 l -1.38571,-1.38572 -0.27006,-50.94089 c -0.30376,-57.29607 -0.0298,-53.34643 -3.93938,-56.78782 -5.66141,-4.98336 -13.794798,-3.37464 -17.448447,3.45117 l -1.033423,1.93066 -0.237284,50.80065 c -0.264727,56.67469 -0.0011,52.66881 -3.542513,53.83757 -2.332505,0.76979 -4.667305,-0.0561 -5.928936,-2.09761 -0.954913,-1.54506 -0.969245,-2.13418 -0.971846,-39.95275 -0.0018,-25.59647 -0.170398,-38.98863 -0.506155,-40.19778 -0.625667,-2.25313 -3.325766,-5.30063 -5.826966,-6.57664 -3.975935,-2.02837 -9.726634,-0.91291 -12.982967,2.51831 -3.149073,3.31819 -2.9861,-0.0402 -2.988055,61.57513 -0.0017,54.49221 -0.02386,55.85764 -0.926448,57.33805 -0.610475,1.00119 -1.544887,1.70233 -2.749855,2.06334 -3.120643,0.93497 -4.504225,-0.0282 -10.342491,-7.19955 -18.635912,-22.8913 -21.426591,-25.48304 -27.504724,-25.54407 -3.070814,-0.0309 -7.065422,2.82869 -8.8788388,6.35589 -1.4078684,2.73834 -1.024956,7.87492 0.9320438,12.5028 4.260842,10.07602 38.464147,67.17309 47.060447,78.56005 9.029059,11.96022 19.848378,19.02566 34.92002,22.8042 4.526932,1.13494 12.745428,2.47142 17.321978,2.81688 5.88632,0.44435 15.86021,0.25565 20.07616,-0.37982 z"
       id="path7" /></g></svg>
