<?xml version="1.0" encoding="UTF-8" standalone="no"?>
<!-- Created with Inkscape (http://www.inkscape.org/) -->

<svg
   width="100mm"
   height="100mm"
   viewBox="0 0 100 100"
   version="1.1"
   id="svg1"
   inkscape:version="1.4.3 (0d15f75, 2025-12-25)"
   sodipodi:docname="private no turning.svg"
   xmlns:inkscape="http://www.inkscape.org/namespaces/inkscape"
   xmlns:sodipodi="http://sodipodi.sourceforge.net/DTD/sodipodi-0.dtd"
   xmlns:xlink="http://www.w3.org/1999/xlink"
   xmlns="http://www.w3.org/2000/svg"
   xmlns:svg="http://www.w3.org/2000/svg">
  <sodipodi:namedview
     id="namedview1"
     pagecolor="#ffffff"
     bordercolor="#000000"
     borderopacity="0.25"
     inkscape:showpageshadow="2"
     inkscape:pageopacity="0.0"
     inkscape:pagecheckerboard="0"
     inkscape:deskcolor="#d1d1d1"
     inkscape:document-units="mm"
     inkscape:zoom="0.99508277"
     inkscape:cx="140.18934"
     inkscape:cy="133.15475"
     inkscape:window-width="2560"
     inkscape:window-height="1334"
     inkscape:window-x="-11"
     inkscape:window-y="-11"
     inkscape:window-maximized="1"
     inkscape:current-layer="layer1" />
  <defs
     id="defs1">
    <symbol
       id="sjjb-shopping.svg:car"
       viewBox="0 0 502.50159 420.24799">
      <title
         id="title12">Car</title>
      <path
         d="M 142.91852,0 C 111.18901,0 94.357213,17.322245 86.586633,37.598565 L 45.338153,144.10584 C 28.986505,146.20256 0,165.39636 0,201.75698 v 135.44277 h 40.149113 v 43.31533 c 0,53.29057 75.416987,52.66296 75.416997,0 v -43.31533 h 135.66267 0.0441 135.66259 v 43.31533 c 0,52.66296 75.41664,53.29057 75.41707,0 v -43.31533 h 40.14905 V 201.75698 c 0,-36.36059 -28.98631,-55.55443 -45.33824,-57.65114 L 415.87093,37.598565 C 408.10038,17.32225 391.26873,5e-6 359.53898,5e-6 H 301.22835 201.9328 142.91852 Z m -0.48373,38.785895 h 108.70605 0.0879 0.0441 108.74994 c 13.59772,0.12662 19.42144,8.63032 23.30669,20.40434 l 31.09022,83.816245 h -163.14685 -0.0441 -0.0879 -163.10303 l 31.09026,-83.816245 c 3.8853,-11.77402 9.70755,-20.27772 23.30672,-20.40434 z M 79.066933,183.77123 c 19.24062,0 34.828137,16.05329 34.828137,35.88353 -1e-5,19.83166 -15.587517,35.92753 -34.828137,35.92753 -19.23921,0 -34.828151,-16.0959 -34.828151,-35.92753 0,-19.83019 15.588941,-35.88353 34.828151,-35.88353 z m 344.367667,0 c 19.24063,0 34.82828,16.05334 34.82815,35.88353 0,19.83163 -15.58752,35.92753 -34.82815,35.92753 -19.23919,0 -34.8722,-16.09587 -34.8722,-35.92753 0,-19.83024 15.63301,-35.88353 34.8722,-35.88353 z"
         id="path13" />
    </symbol>
  </defs>
  <g
     inkscape:label="Layer 1"
     inkscape:groupmode="layer"
     id="layer1">
    <g
       id="g6"
       transform="matrix(1.0138216,0,0,1.0138216,-1.7807005,0.01000076)">
      <g
         id="g5"
         transform="translate(1.0747643)">
        <g
           id="g4">
          <rect
             style="fill:#ff0000;stroke-width:1.47131;stroke-linecap:square;paint-order:fill markers stroke"
             id="rect1"
             width="94.391228"
             height="38.193638"
             x="2.8043873"
             y="59.208019" />
          <text
             xml:space="preserve"
             style="font-size:12.421px;line-height:1.4;font-family:Georgia;-inkscape-font-specification:'Georgia, Normal';text-align:center;letter-spacing:0.0775209px;word-spacing:0.0527144px;writing-mode:lr-tb;direction:ltr;text-anchor:middle;fill:#ffffff;stroke-width:1.24698;stroke-linecap:square;paint-order:fill markers stroke"
             x="49.896896"
             y="82.747406"
             id="text1"><tspan
               sodipodi:role="line"
               id="tspan1"
               style="font-style:normal;font-variant:normal;font-weight:900;font-stretch:normal;font-size:12.421px;font-family:Arial;-inkscape-font-specification:'Arial, Heavy';font-variant-ligatures:normal;font-variant-caps:normal;font-variant-numeric:normal;font-variant-east-asian:normal;fill:#ffffff;stroke-width:1.24698"
               x="49.935658"
               y="82.747406">NO TURNING</tspan></text>
        </g>
        <text
           xml:space="preserve"
           style="font-size:12.421px;line-height:1.4;font-family:Georgia;-inkscape-font-specification:'Georgia, Normal';text-align:center;letter-spacing:0.0775209px;word-spacing:0.0527144px;writing-mode:lr-tb;direction:ltr;text-anchor:middle;fill:#000000;stroke-width:1.24698;stroke-linecap:square;paint-order:fill markers stroke"
           x="49.836246"
           y="52.169968"
           id="text2"><tspan
             sodipodi:role="line"
             id="tspan2"
             style="font-style:normal;font-variant:normal;font-weight:900;font-stretch:normal;font-size:12.421px;font-family:Arial;-inkscape-font-specification:'Arial, Heavy';font-variant-ligatures:normal;font-variant-caps:normal;font-variant-numeric:normal;font-variant-east-asian:normal;fill:#000000;stroke-width:1.24698"
             x="49.875008"
             y="52.169968">PRIVATE</tspan></text>
      </g>
      <g
         id="g3"
         transform="matrix(1.0641127,0,0,1.0641127,-2.1308667,-2.3414179)">
        <use
           xlink:href="#sjjb-shopping.svg:car"
           width="502.50159"
           height="420.24799"
           style="fill:#000000;stroke:none"
           id="use1"
           transform="matrix(0.04340523,0,0,0.04340523,39.094399,10.81091)" />
        <g
           id="g2"
           transform="matrix(0.65723759,0,0,0.65723759,109.85304,30.678726)">
          <ellipse
             style="fill:none;stroke:#ff0000;stroke-width:3.95;stroke-linecap:square;stroke-dasharray:none;stroke-opacity:1;paint-order:fill markers stroke"
             id="path2"
             cx="-91.067589"
             cy="-16.352283"
             rx="23.531334"
             ry="23.265442" />
          <rect
             style="fill:#ff0000;stroke:#ff0000;stroke-width:2.47522;stroke-linecap:square;stroke-dasharray:none;stroke-opacity:1;paint-order:fill markers stroke"
             id="rect2"
             width="44.631294"
             height="2.2292945"
             x="-112.92461"
             y="60.222672"
             transform="matrix(0.67031761,0.74207432,-0.51399913,0.85779071,0,0)" />
        </g>
      </g>
    </g>
  </g>
</svg>
